Interstate-Hairline_Italic.ufo
<glyph name="exclam" format="1">
  <advance width="218"/>
  <unicode hex="0021"/>
  <outline>
    <contour>
      <point x="131" y="371" type="line"/>
      <point x="88" y="130" type="line"/>
      <point x="84" y="130" type="line"/>
      <point x="127" y="371" type="line"/>
      <point x="185" y="700" type="line"/>
      <point x="189" y="700" type="line"/>
    </contour>
    <contour>
      <point x="65" y="0" type="line"/>
      <point x="61" y="0" type="line"/>
      <point x="72" y="60" type="line"/>
      <point x="76" y="60" type="line"/>
    </contour>
  </outline>
</glyph>
<glyph name="quotedbl" format="1">
  <advance width="415"/>
  <unicode hex="0022"/>
  <outline>
    <contour>
      <point x="384" y="700" type="line"/>
      <point x="349" y="500" type="line"/>
      <point x="345" y="500" type="line"/>
      <point x="380" y="700" type="line"/>
    </contour>
    <contour>
      <point x="189" y="700" type="line"/>
      <point x="154" y="500" type="line"/>
      <point x="150" y="500" type="line"/>
      <point x="185" y="700" type="line"/>
    </contour>
  </outline>
</glyph>
<glyph name="numbersign" format="1">
  <advance width="640"/>
  <unicode hex="0023"/>
  <outline>
    <contour>
      <point x="573" y="218" type="line"/>
      <point x="438" y="218" type="line"/>
      <point x="400" y="0" type="line"/>
      <point x="396" y="0" type="line"/>
      <point x="434" y="218" type="line"/>
      <point x="190" y="218" type="line"/>
      <point x="152" y="0" type="line"/>
      <point x="148" y="0" type="line"/>
      <point x="186" y="218" type="line"/>
      <point x="51" y="218" type="line"/>
      <point x="52" y="222" type="line"/>
      <point x="187" y="222" type="line"/>
      <point x="232" y="477" type="line"/>
      <point x="97" y="477" type="line"/>
      <point x="98" y="481" type="line"/>
      <point x="233" y="481" type="line"/>
      <point x="271" y="700" type="line"/>
      <point x="275" y="700" type="line"/>
      <point x="237" y="481" type="line"/>
      <point x="481" y="481" type="line"/>
      <point x="519" y="700" type="line"/>
      <point x="523" y="700" type="line"/>
      <point x="485" y="481" type="line"/>
      <point x="620" y="481" type="line"/>
      <point x="619" y="477" type="line"/>
      <point x="484" y="477" type="line"/>
      <point x="439" y="222" type="line"/>
      <point x="574" y="222" type="line"/>
    </contour>
    <contour>
      <point x="435" y="222" type="line"/>
      <point x="480" y="477" type="line"/>
      <point x="236" y="477" type="line"/>
      <point x="191" y="222" type="line"/>
    </contour>
  </outline>
</glyph>
<glyph name="dollar" format="1">
  <advance width="546"/>
  <unicode hex="0024"/>
  <outline>
    <contour>
      <point x="346" y="710" type="line"/>
      <point x="362" y="800" type="line"/>
      <point x="366" y="800" type="line"/>
      <point x="350" y="710" type="line"/>
    </contour>
    <contour>
      <point x="524" y="635" type="line"/>
      <point x="487" y="667"/>
      <point x="419" y="707"/>
      <point x="328" y="707" type="curve" smooth="yes"/>
      <point x="196" y="707"/>
      <point x="129" y="630"/>
      <point x="129" y="540" type="curve" smooth="yes"/>
      <point x="129" y="472"/>
      <point x="159" y="426"/>
      <point x="284" y="367" type="curve" smooth="yes"/>
      <point x="415" y="305"/>
      <point x="459" y="260"/>
      <point x="459" y="180" type="curve" smooth="yes"/>
      <point x="459" y="52"/>
      <point x="360" y="-11"/>
      <point x="240" y="-11" type="curve" smooth="yes"/>
      <point x="138" y="-11"/>
      <point x="61" y="34"/>
      <point x="26" y="71" type="curve"/>
      <point x="29" y="73" type="line"/>
      <point x="65" y="37"/>
      <point x="139" y="-7"/>
      <point x="240" y="-7" type="curve" smooth="yes"/>
      <point x="358" y="-7"/>
      <point x="455" y="54"/>
      <point x="455" y="180" type="curve" smooth="yes"/>
      <point x="455" y="258"/>
      <point x="413" y="301"/>
      <point x="283" y="363" type="curve" smooth="yes"/>
      <point x="158" y="423"/>
      <point x="125" y="467"/>
      <point x="125" y="540" type="curve" smooth="yes"/>
      <point x="125" y="632"/>
      <point x="194" y="711"/>
      <point x="328" y="711" type="curve" smooth="yes"/>
      <point x="421" y="711"/>
      <point x="489" y="670"/>
      <point x="526" y="638" type="curve"/>
    </contour>
    <contour>
      <point x="203" y="-100" type="line"/>
      <point x="219" y="-10" type="line"/>
      <point x="223" y="-10" type="line"/>
      <point x="207" y="-100" type="line"/>
    </contour>
  </outline>
</glyph>
<glyph name="percent" format="1">
  <advance width="835"/>
  <unicode hex="0025"/>
  <outline>
    <contour>
      <point x="102" y="459" type="curve" smooth="yes"/>
      <point x="102" y="593"/>
      <point x="165" y="710"/>
      <point x="275" y="710" type="curve" smooth="yes"/>
      <point x="352" y="710"/>
      <point x="398" y="662"/>
      <point x="398" y="567" type="curve" smooth="yes"/>
      <point x="398" y="431"/>
      <point x="334" y="318"/>
      <point x="226" y="318" type="curve" smooth="yes"/>
      <point x="144" y="318"/>
      <point x="102" y="368"/>
    </contour>
    <contour>
      <point x="715" y="700" type="line"/>
      <point x="156" y="0" type="line"/>
      <point x="152" y="0" type="line"/>
      <point x="711" y="700" type="line"/>
    </contour>
    <contour>
      <point x="469" y="131" type="curve" smooth="yes"/>
      <point x="469" y="265"/>
      <point x="532" y="382"/>
      <point x="642" y="382" type="curve" smooth="yes"/>
      <point x="719" y="382"/>
      <point x="765" y="334"/>
      <point x="765" y="239" type="curve" smooth="yes"/>
      <point x="765" y="103"/>
      <point x="701" y="-10"/>
      <point x="593" y="-10" type="curve" smooth="yes"/>
      <point x="511" y="-10"/>
      <point x="469" y="40"/>
    </contour>
    <contour>
      <point x="394" y="567" type="curve" smooth="yes"/>
      <point x="394" y="660"/>
      <point x="350" y="706"/>
      <point x="275" y="706" type="curve" smooth="yes"/>
      <point x="167" y="706"/>
      <point x="106" y="591"/>
      <point x="106" y="459" type="curve" smooth="yes"/>
      <point x="106" y="370"/>
      <point x="146" y="322"/>
      <point x="226" y="322" type="curve" smooth="yes"/>
      <point x="332" y="322"/>
      <point x="394" y="433"/>
    </contour>
    <contour>
      <point x="761" y="239" type="curve" smooth="yes"/>
      <point x="761" y="332"/>
      <point x="717" y="378"/>
      <point x="642" y="378" type="curve" smooth="yes"/>
      <point x="534" y="378"/>
      <point x="473" y="263"/>
      <point x="473" y="131" type="curve" smooth="yes"/>
      <point x="473" y="42"/>
      <point x="513" y="-6"/>
      <point x="593" y="-6" type="curve" smooth="yes"/>
      <point x="699" y="-6"/>
      <point x="761" y="105"/>
    </contour>
  </outline>
</glyph>
<glyph name="ampersand" format="1">
  <advance width="604"/>
  <unicode hex="0026"/>
  <outline>
    <contour>
      <point x="433" y="110" type="curve"/>
      <point x="499" y="1" type="line"/>
      <point x="495" y="-1" type="line"/>
      <point x="430" y="106" type="line"/>
      <point x="369" y="36"/>
      <point x="293" y="-11"/>
      <point x="204" y="-11" type="curve" smooth="yes"/>
      <point x="103" y="-11"/>
      <point x="36" y="51"/>
      <point x="36" y="147" type="curve" smooth="yes"/>
      <point x="36" y="262"/>
      <point x="148" y="353"/>
      <point x="254" y="398" type="curve"/>
      <point x="255" y="398"/>
      <point x="234" y="432"/>
      <point x="234" y="432" type="curve" smooth="yes"/>
      <point x="206" y="480"/>
      <point x="188" y="517"/>
      <point x="188" y="568" type="curve" smooth="yes"/>
      <point x="188" y="651"/>
      <point x="245" y="711"/>
      <point x="345" y="711" type="curve" smooth="yes"/>
      <point x="414" y="711"/>
      <point x="474" y="682"/>
      <point x="517" y="641" type="curve"/>
      <point x="515" y="638" type="line"/>
      <point x="470" y="679"/>
      <point x="413" y="707"/>
      <point x="345" y="707" type="curve" smooth="yes"/>
      <point x="247" y="707"/>
      <point x="192" y="648"/>
      <point x="192" y="568" type="curve" smooth="yes"/>
      <point x="192" y="519"/>
      <point x="210" y="481"/>
      <point x="238" y="434" type="curve" smooth="yes"/>
      <point x="431" y="114" type="line"/>
      <point x="472" y="161"/>
      <point x="506" y="219"/>
      <point x="532" y="280" type="curve"/>
      <point x="536" y="278" type="line"/>
      <point x="508" y="215"/>
      <point x="474" y="157"/>
    </contour>
    <contour>
      <point x="428" y="110" type="curve"/>
      <point x="256" y="395" type="line"/>
      <point x="149" y="348"/>
      <point x="40" y="259"/>
      <point x="40" y="147" type="curve" smooth="yes"/>
      <point x="40" y="53"/>
      <point x="106" y="-7"/>
      <point x="204" y="-7" type="curve" smooth="yes"/>
      <point x="291" y="-7"/>
      <point x="367" y="39"/>
    </contour>
  </outline>
</glyph>
<glyph name="quotesingle" format="1">
  <advance width="220"/>
  <unicode hex="0027"/>
  <outline>
    <contour>
      <point x="190" y="700" type="line"/>
      <point x="154" y="500" type="line"/>
      <point x="150" y="500" type="line"/>
      <point x="186" y="700" type="line"/>
    </contour>
  </outline>
</glyph>
<glyph name="parenleft" format="1">
  <advance width="350"/>
  <unicode hex="0028"/>
  <outline>
    <contour>
      <point x="184" y="-111" type="line"/>
      <point x="133" y="-46"/>
      <point x="85" y="82"/>
      <point x="85" y="211" type="curve" smooth="yes"/>
      <point x="85" y="420"/>
      <point x="195" y="609"/>
      <point x="332" y="718" type="curve"/>
      <point x="334" y="714" type="line"/>
      <point x="199" y="607"/>
      <point x="89" y="418"/>
      <point x="89" y="211" type="curve" smooth="yes"/>
      <point x="89" y="83"/>
      <point x="137" y="-44"/>
      <point x="188" y="-109" type="curve"/>
    </contour>
  </outline>
</glyph>
<glyph name="parenright" format="1">
  <advance width="350"/>
  <unicode hex="0029"/>
  <outline>
    <contour>
      <point x="181" y="717" type="line"/>
      <point x="232" y="652"/>
      <point x="280" y="524"/>
      <point x="280" y="395" type="curve" smooth="yes"/>
      <point x="280" y="186"/>
      <point x="170" y="-3"/>
      <point x="33" y="-112" type="curve"/>
      <point x="31" y="-108" type="line"/>
      <point x="166" y="-1"/>
      <point x="276" y="188"/>
      <point x="276" y="395" type="curve" smooth="yes"/>
      <point x="276" y="523"/>
      <point x="228" y="650"/>
      <point x="177" y="715" type="curve"/>
    </contour>
  </outline>
</glyph>
<glyph name="asterisk" format="1">
  <advance width="470"/>
  <unicode hex="002A"/>
  <outline>
    <contour>
      <point x="427" y="420" type="line"/>
      <point x="425" y="416" type="line"/>
      <point x="266" y="509" type="line"/>
      <point x="266" y="324" type="line"/>
      <point x="262" y="324" type="line"/>
      <point x="262" y="509" type="line"/>
      <point x="103" y="416" type="line"/>
      <point x="101" y="420" type="line"/>
      <point x="260" y="512" type="line"/>
      <point x="101" y="604" type="line"/>
      <point x="103" y="608" type="line"/>
      <point x="262" y="515" type="line"/>
      <point x="262" y="700" type="line"/>
      <point x="266" y="700" type="line"/>
      <point x="266" y="515" type="line"/>
      <point x="425" y="608" type="line"/>
      <point x="427" y="604" type="line"/>
      <point x="268" y="512" type="line"/>
    </contour>
  </outline>
</glyph>
<glyph name="plus" format="1">
  <advance width="567"/>
  <unicode hex="002B"/>
  <outline>
    <contour>
      <point x="527" y="342" type="line"/>
      <point x="300" y="342" type="line"/>
      <point x="300" y="85" type="line"/>
      <point x="296" y="85" type="line"/>
      <point x="296" y="342" type="line"/>
      <point x="68" y="342" type="line"/>
      <point x="68" y="346" type="line"/>
      <point x="296" y="346" type="line"/>
      <point x="296" y="603" type="line"/>
      <point x="300" y="603" type="line"/>
      <point x="300" y="346" type="line"/>
      <point x="527" y="346" type="line"/>
    </contour>
  </outline>
</glyph>
<glyph name="comma" format="1">
  <advance width="174"/>
  <unicode hex="002C"/>
  <outline>
    <contour>
      <point x="57" y="60" type="line"/>
      <point x="16" y="-68" type="line"/>
      <point x="12" y="-68" type="line"/>
      <point x="53" y="60" type="line"/>
    </contour>
  </outline>
</glyph>
<glyph name="hyphen" format="1">
  <advance width="310"/>
  <unicode hex="002D"/>
  <unicode hex="2010"/>
  <unicode hex="2011"/>
  <outline>
    <contour>
      <point x="276" y="361" type="line"/>
      <point x="70" y="361" type="line"/>
      <point x="71" y="365" type="line"/>
      <point x="277" y="365" type="line"/>
    </contour>
  </outline>
</glyph>
<glyph name="period" format="1">
  <advance width="174"/>
  <unicode hex="002E"/>
  <outline>
    <contour>
      <point x="43" y="0" type="line"/>
      <point x="39" y="0" type="line"/>
      <point x="50" y="60" type="line"/>
      <point x="54" y="60" type="line"/>
    </contour>
  </outline>
</glyph>
<glyph name="slash" format="1">
  <advance width="400"/>
  <unicode hex="002F"/>
  <outline>
    <contour>
      <point x="438" y="790" type="line"/>
      <point x="-3" y="-91" type="line"/>
      <point x="-7" y="-90" type="line"/>
      <point x="434" y="791" type="line"/>
    </contour>
  </outline>
</glyph>
<glyph name="zero" format="1">
  <advance width="648"/>
  <unicode hex="0030"/>
  <outline>
    <contour>
      <point x="75" y="250" type="curve" smooth="yes"/>
      <point x="75" y="475"/>
      <point x="188" y="711"/>
      <point x="386" y="711" type="curve" smooth="yes"/>
      <point x="521" y="711"/>
      <point x="605" y="614"/>
      <point x="605" y="452" type="curve" smooth="yes"/>
      <point x="605" y="227"/>
      <point x="492" y="-11"/>
      <point x="294" y="-11" type="curve" smooth="yes"/>
      <point x="160" y="-11"/>
      <point x="75" y="88"/>
    </contour>
    <contour>
      <point x="601" y="452" type="curve" smooth="yes"/>
      <point x="601" y="612"/>
      <point x="518" y="707"/>
      <point x="386" y="707" type="curve" smooth="yes"/>
      <point x="190" y="707"/>
      <point x="79" y="473"/>
      <point x="79" y="250" type="curve" smooth="yes"/>
      <point x="79" y="90"/>
      <point x="162" y="-7"/>
      <point x="294" y="-7" type="curve" smooth="yes"/>
      <point x="490" y="-7"/>
      <point x="601" y="229"/>
    </contour>
  </outline>
</glyph>
<glyph name="one" format="1">
  <advance width="262"/>
  <unicode hex="0031"/>
  <outline>
    <contour>
      <point x="109" y="0" type="line"/>
      <point x="105" y="0" type="line"/>
      <point x="227" y="695" type="line"/>
      <point x="209" y="664"/>
      <point x="145" y="630"/>
      <point x="98" y="630" type="curve"/>
      <point x="98" y="634" type="line"/>
      <point x="144" y="634"/>
      <point x="210" y="668"/>
      <point x="230" y="705" type="curve"/>
      <point x="233" y="705" type="line"/>
    </contour>
  </outline>
</glyph>
<glyph name="two" format="1">
  <advance width="541"/>
  <unicode hex="0032"/>
  <outline>
    <contour>
      <point x="416" y="0" type="line"/>
      <point x="13" y="0" type="line"/>
      <point x="31" y="103"/>
      <point x="89" y="209"/>
      <point x="269" y="302" type="curve" smooth="yes"/>
      <point x="442" y="391"/>
      <point x="504" y="460"/>
      <point x="504" y="560" type="curve" smooth="yes"/>
      <point x="504" y="653"/>
      <point x="437" y="707"/>
      <point x="322" y="707" type="curve" smooth="yes"/>
      <point x="257" y="707"/>
      <point x="202" y="691"/>
      <point x="158" y="667" type="curve"/>
      <point x="157" y="671" type="line"/>
      <point x="201" y="695"/>
      <point x="257" y="711"/>
      <point x="322" y="711" type="curve" smooth="yes"/>
      <point x="439" y="711"/>
      <point x="508" y="656"/>
      <point x="508" y="560" type="curve" smooth="yes"/>
      <point x="508" y="457"/>
      <point x="445" y="389"/>
      <point x="270" y="298" type="curve" smooth="yes"/>
      <point x="94" y="206"/>
      <point x="37" y="105"/>
      <point x="18" y="4" type="curve"/>
      <point x="417" y="4" type="line"/>
    </contour>
  </outline>
</glyph>
<glyph name="three" format="1">
  <advance width="528"/>
  <unicode hex="0033"/>
  <outline>
    <contour>
      <point x="219" y="374" type="curve"/>
      <point x="219" y="378" type="line"/>
      <point x="233" y="378"/>
      <point x="242" y="378"/>
      <point x="273" y="378" type="curve" smooth="yes"/>
      <point x="376" y="378"/>
      <point x="472" y="462"/>
      <point x="472" y="574" type="curve" smooth="yes"/>
      <point x="472" y="669"/>
      <point x="410" y="719"/>
      <point x="296" y="719" type="curve" smooth="yes"/>
      <point x="229" y="719"/>
      <point x="164" y="696"/>
      <point x="143" y="683" type="curve"/>
      <point x="142" y="687" type="line"/>
      <point x="163" y="700"/>
      <point x="229" y="723"/>
      <point x="296" y="723" type="curve" smooth="yes"/>
      <point x="412" y="723"/>
      <point x="476" y="672"/>
      <point x="476" y="574" type="curve" smooth="yes"/>
      <point x="476" y="471"/>
      <point x="397" y="392"/>
      <point x="302" y="376" type="curve"/>
      <point x="386" y="365"/>
      <point x="441" y="306"/>
      <point x="441" y="210" type="curve" smooth="yes"/>
      <point x="441" y="92"/>
      <point x="353" y="-9"/>
      <point x="208" y="-9" type="curve" smooth="yes"/>
      <point x="116" y="-9"/>
      <point x="43" y="26"/>
      <point x="13" y="52" type="curve"/>
      <point x="14" y="56" type="line"/>
      <point x="44" y="30"/>
      <point x="118" y="-5"/>
      <point x="208" y="-5" type="curve" smooth="yes"/>
      <point x="351" y="-5"/>
      <point x="437" y="94"/>
      <point x="437" y="210" type="curve" smooth="yes"/>
      <point x="437" y="315"/>
      <point x="371" y="374"/>
      <point x="273" y="374" type="curve" smooth="yes"/>
      <point x="255" y="374"/>
      <point x="244" y="374"/>
    </contour>
  </outline>
</glyph>
<glyph name="four" format="1">
  <advance width="552"/>
  <unicode hex="0034"/>
  <outline>
    <contour>
      <point x="389" y="194" type="line"/>
      <point x="21" y="194" type="line"/>
      <point x="22" y="198" type="line"/>
      <point x="479" y="702" type="line"/>
      <point x="482" y="700" type="line"/>
      <point x="394" y="198" type="line"/>
      <point x="503" y="198" type="line"/>
      <point x="502" y="194" type="line"/>
      <point x="393" y="194" type="line"/>
      <point x="359" y="0" type="line"/>
      <point x="355" y="0" type="line"/>
    </contour>
    <contour>
      <point x="390" y="198" type="line"/>
      <point x="477" y="694" type="line"/>
      <point x="27" y="198" type="line"/>
    </contour>
  </outline>
</glyph>
<glyph name="five" format="1">
  <advance width="565"/>
  <unicode hex="0035"/>
  <outline>
    <contour>
      <point x="553" y="696" type="line"/>
      <point x="198" y="696" type="line"/>
      <point x="116" y="367" type="line"/>
      <point x="155" y="396"/>
      <point x="214" y="414"/>
      <point x="286" y="414" type="curve" smooth="yes"/>
      <point x="430" y="414"/>
      <point x="503" y="348"/>
      <point x="503" y="229" type="curve" smooth="yes"/>
      <point x="503" y="77"/>
      <point x="386" y="-13"/>
      <point x="236" y="-13" type="curve" smooth="yes"/>
      <point x="143" y="-13"/>
      <point x="57" y="26"/>
      <point x="34" y="45" type="curve"/>
      <point x="35" y="49" type="line"/>
      <point x="58" y="30"/>
      <point x="145" y="-9"/>
      <point x="236" y="-9" type="curve" smooth="yes"/>
      <point x="384" y="-9"/>
      <point x="499" y="79"/>
      <point x="499" y="229" type="curve" smooth="yes"/>
      <point x="499" y="345"/>
      <point x="428" y="410"/>
      <point x="286" y="410" type="curve" smooth="yes"/>
      <point x="214" y="410"/>
      <point x="154" y="391"/>
      <point x="114" y="361" type="curve"/>
      <point x="111" y="363" type="line"/>
      <point x="195" y="700" type="line"/>
      <point x="554" y="700" type="line"/>
    </contour>
  </outline>
</glyph>
<glyph name="six" format="1">
  <advance width="605"/>
  <unicode hex="0036"/>
  <outline>
    <contour>
      <point x="75" y="264" type="curve"/>
      <point x="113" y="355"/>
      <point x="215" y="421"/>
      <point x="327" y="421" type="curve" smooth="yes"/>
      <point x="452" y="421"/>
      <point x="539" y="355"/>
      <point x="539" y="234" type="curve" smooth="yes"/>
      <point x="539" y="99"/>
      <point x="434" y="-11"/>
      <point x="293" y="-11" type="curve" smooth="yes"/>
      <point x="147" y="-11"/>
      <point x="68" y="73"/>
      <point x="68" y="215" type="curve" smooth="yes"/>
      <point x="68" y="396"/>
      <point x="199" y="672"/>
      <point x="508" y="707" type="curve"/>
      <point x="508" y="703" type="line"/>
      <point x="229" y="671"/>
      <point x="97" y="443"/>
    </contour>
    <contour>
      <point x="72" y="215" type="curve" smooth="yes"/>
      <point x="72" y="75"/>
      <point x="149" y="-7"/>
      <point x="293" y="-7" type="curve" smooth="yes"/>
      <point x="432" y="-7"/>
      <point x="535" y="101"/>
      <point x="535" y="234" type="curve" smooth="yes"/>
      <point x="535" y="353"/>
      <point x="450" y="417"/>
      <point x="327" y="417" type="curve" smooth="yes"/>
      <point x="211" y="417"/>
      <point x="109" y="347"/>
      <point x="74" y="252" type="curve"/>
      <point x="73" y="241"/>
      <point x="72" y="226"/>
    </contour>
  </outline>
</glyph>
<glyph name="seven" format="1">
  <advance width="510"/>
  <unicode hex="0037"/>
  <outline>
    <contour>
      <point x="539" y="697" type="line"/>
      <point x="376" y="530"/>
      <point x="208" y="293"/>
      <point x="143" y="0" type="curve"/>
      <point x="139" y="0" type="line"/>
      <point x="204" y="293"/>
      <point x="371" y="529"/>
      <point x="533" y="696" type="curve"/>
      <point x="111" y="696" type="line"/>
      <point x="112" y="700" type="line"/>
      <point x="539" y="700" type="line"/>
    </contour>
  </outline>
</glyph>
<glyph name="eight" format="1">
  <advance width="598"/>
  <unicode hex="0038"/>
  <outline>
    <contour>
      <point x="290" y="371" type="curve"/>
      <point x="199" y="385"/>
      <point x="135" y="439"/>
      <point x="135" y="521" type="curve" smooth="yes"/>
      <point x="135" y="634"/>
      <point x="235" y="711"/>
      <point x="356" y="711" type="curve" smooth="yes"/>
      <point x="479" y="711"/>
      <point x="561" y="651"/>
      <point x="561" y="553" type="curve" smooth="yes"/>
      <point x="561" y="443"/>
      <point x="468" y="371"/>
      <point x="350" y="367" type="curve"/>
      <point x="449" y="354"/>
      <point x="529" y="304"/>
      <point x="529" y="199" type="curve" smooth="yes"/>
      <point x="529" y="85"/>
      <point x="434" y="-11"/>
      <point x="283" y="-11" type="curve" smooth="yes"/>
      <point x="158" y="-11"/>
      <point x="41" y="37"/>
      <point x="41" y="166" type="curve" smooth="yes"/>
      <point x="41" y="279"/>
      <point x="139" y="371"/>
    </contour>
    <contour>
      <point x="356" y="707" type="curve" smooth="yes"/>
      <point x="237" y="707"/>
      <point x="139" y="632"/>
      <point x="139" y="521" type="curve" smooth="yes"/>
      <point x="139" y="426"/>
      <point x="227" y="371"/>
      <point x="342" y="371" type="curve" smooth="yes"/>
      <point x="461" y="371"/>
      <point x="557" y="442"/>
      <point x="557" y="553" type="curve" smooth="yes"/>
      <point x="557" y="649"/>
      <point x="477" y="707"/>
    </contour>
    <contour>
      <point x="290" y="367" type="curve" smooth="yes"/>
      <point x="141" y="367"/>
      <point x="45" y="278"/>
      <point x="45" y="166" type="curve" smooth="yes"/>
      <point x="45" y="39"/>
      <point x="160" y="-7"/>
      <point x="283" y="-7" type="curve" smooth="yes"/>
      <point x="432" y="-7"/>
      <point x="525" y="87"/>
      <point x="525" y="199" type="curve" smooth="yes"/>
      <point x="525" y="323"/>
      <point x="413" y="367"/>
    </contour>
  </outline>
</glyph>
<glyph name="nine" format="1">
  <advance width="605"/>
  <unicode hex="0039"/>
  <outline>
    <contour>
      <point x="558" y="436" type="curve"/>
      <point x="520" y="345"/>
      <point x="418" y="279"/>
      <point x="306" y="279" type="curve" smooth="yes"/>
      <point x="181" y="279"/>
      <point x="94" y="345"/>
      <point x="94" y="466" type="curve" smooth="yes"/>
      <point x="94" y="601"/>
      <point x="199" y="711"/>
      <point x="340" y="711" type="curve" smooth="yes"/>
      <point x="486" y="711"/>
      <point x="565" y="627"/>
      <point x="565" y="485" type="curve" smooth="yes"/>
      <point x="565" y="304"/>
      <point x="434" y="28"/>
      <point x="125" y="-7" type="curve"/>
      <point x="125" y="-3" type="line"/>
      <point x="404" y="29"/>
      <point x="536" y="257"/>
    </contour>
    <contour>
      <point x="561" y="485" type="curve" smooth="yes"/>
      <point x="561" y="625"/>
      <point x="484" y="707"/>
      <point x="340" y="707" type="curve" smooth="yes"/>
      <point x="201" y="707"/>
      <point x="98" y="599"/>
      <point x="98" y="466" type="curve" smooth="yes"/>
      <point x="98" y="347"/>
      <point x="183" y="283"/>
      <point x="306" y="283" type="curve" smooth="yes"/>
      <point x="422" y="283"/>
      <point x="524" y="353"/>
      <point x="559" y="448" type="curve"/>
      <point x="560" y="459"/>
      <point x="561" y="474"/>
    </contour>
  </outline>
</glyph>
<glyph name="colon" format="1">
  <advance width="174"/>
  <unicode hex="003A"/>
  <outline>
    <contour>
      <point x="124" y="465" type="line"/>
      <point x="120" y="465" type="line"/>
      <point x="131" y="525" type="line"/>
      <point x="135" y="525" type="line"/>
    </contour>
    <contour>
      <point x="43" y="0" type="line"/>
      <point x="39" y="0" type="line"/>
      <point x="49" y="60" type="line"/>
      <point x="53" y="60" type="line"/>
    </contour>
  </outline>
</glyph>
<glyph name="semicolon" format="1">
  <advance width="174"/>
  <unicode hex="003B"/>
  <outline>
    <contour>
      <point x="124" y="465" type="line"/>
      <point x="120" y="465" type="line"/>
      <point x="131" y="525" type="line"/>
      <point x="135" y="525" type="line"/>
    </contour>
    <contour>
      <point x="48" y="60" type="line"/>
      <point x="7" y="-68" type="line"/>
      <point x="3" y="-68" type="line"/>
      <point x="44" y="60" type="line"/>
    </contour>
  </outline>
</glyph>
<glyph name="equal" format="1">
  <advance width="582"/>
  <unicode hex="003D"/>
  <outline>
    <contour>
      <point x="492" y="440" type="line"/>
      <point x="88" y="440" type="line"/>
      <point x="88" y="444" type="line"/>
      <point x="492" y="444" type="line"/>
    </contour>
    <contour>
      <point x="492" y="244" type="line"/>
      <point x="88" y="244" type="line"/>
      <point x="88" y="248" type="line"/>
      <point x="492" y="248" type="line"/>
    </contour>
  </outline>
</glyph>
<glyph name="greater" format="1">
  <advance width="385"/>
  <unicode hex="003E"/>
  <outline>
    <contour>
      <point x="353" y="343" type="line"/>
      <point x="95" y="64" type="line"/>
      <point x="92" y="67" type="line"/>
      <point x="348" y="344" type="line"/>
      <point x="92" y="621" type="line"/>
      <point x="95" y="624" type="line"/>
      <point x="353" y="345" type="line"/>
    </contour>
  </outline>
</glyph>
<glyph name="question" format="1">
  <advance width="552"/>
  <unicode hex="003F"/>
  <outline>
    <contour>
      <point x="134" y="656" type="line"/>
      <point x="187" y="691"/>
      <point x="250" y="711"/>
      <point x="332" y="711" type="curve" smooth="yes"/>
      <point x="433" y="711"/>
      <point x="511" y="660"/>
      <point x="511" y="571" type="curve" smooth="yes"/>
      <point x="511" y="477"/>
      <point x="441" y="422"/>
      <point x="356" y="364" type="curve" smooth="yes"/>
      <point x="276" y="310"/>
      <point x="250" y="279"/>
      <point x="224" y="137" type="curve"/>
      <point x="220" y="137" type="line"/>
      <point x="246" y="281"/>
      <point x="273" y="312"/>
      <point x="355" y="368" type="curve" smooth="yes"/>
      <point x="438" y="424"/>
      <point x="507" y="479"/>
      <point x="507" y="571" type="curve" smooth="yes"/>
      <point x="507" y="658"/>
      <point x="431" y="707"/>
      <point x="332" y="707" type="curve" smooth="yes"/>
      <point x="249" y="707"/>
      <point x="188" y="687"/>
      <point x="135" y="652" type="curve"/>
    </contour>
    <contour>
      <point x="211" y="60" type="line"/>
      <point x="200" y="0" type="line"/>
      <point x="196" y="0" type="line"/>
      <point x="207" y="60" type="line"/>
    </contour>
  </outline>
</glyph>
<glyph name="at" format="1">
  <advance width="836"/>
  <unicode hex="0040"/>
  <outline>
    <contour>
      <point x="801" y="360" type="curve" smooth="yes"/>
      <point x="801" y="211"/>
      <point x="736" y="152"/>
      <point x="658" y="152" type="curve" smooth="yes"/>
      <point x="603" y="152"/>
      <point x="569" y="183"/>
      <point x="564" y="242" type="curve"/>
      <point x="529" y="189"/>
      <point x="477" y="153"/>
      <point x="416" y="153" type="curve" smooth="yes"/>
      <point x="349" y="153"/>
      <point x="279" y="183"/>
      <point x="279" y="269" type="curve" smooth="yes"/>
      <point x="279" y="354"/>
      <point x="346" y="399"/>
      <point x="425" y="399" type="curve" smooth="yes"/>
      <point x="480" y="399"/>
      <point x="528" y="382"/>
      <point x="563" y="361" type="curve"/>
      <point x="563" y="434" type="line" smooth="yes"/>
      <point x="563" y="530"/>
      <point x="523" y="561"/>
      <point x="438" y="561" type="curve" smooth="yes"/>
      <point x="388" y="561"/>
      <point x="354" y="546"/>
      <point x="318" y="530" type="curve"/>
      <point x="316" y="534" type="line"/>
      <point x="352" y="550"/>
      <point x="388" y="565"/>
      <point x="438" y="565" type="curve" smooth="yes"/>
      <point x="525" y="565"/>
      <point x="567" y="534"/>
      <point x="567" y="434" type="curve" smooth="yes"/>
      <point x="567" y="259" type="line" smooth="yes"/>
      <point x="567" y="191"/>
      <point x="600" y="156"/>
      <point x="658" y="156" type="curve" smooth="yes"/>
      <point x="734" y="156"/>
      <point x="797" y="215"/>
      <point x="797" y="360" type="curve" smooth="yes"/>
      <point x="797" y="548"/>
      <point x="651" y="707"/>
      <point x="440" y="707" type="curve" smooth="yes"/>
      <point x="233" y="707"/>
      <point x="83" y="557"/>
      <point x="83" y="350" type="curve" smooth="yes"/>
      <point x="83" y="143"/>
      <point x="233" y="-7"/>
      <point x="440" y="-7" type="curve" smooth="yes"/>
      <point x="497" y="-7"/>
      <point x="535" y="1"/>
      <point x="592" y="27" type="curve"/>
      <point x="594" y="23" type="line"/>
      <point x="537" y="-3"/>
      <point x="497" y="-11"/>
      <point x="440" y="-11" type="curve" smooth="yes"/>
      <point x="231" y="-11"/>
      <point x="79" y="141"/>
      <point x="79" y="350" type="curve" smooth="yes"/>
      <point x="79" y="559"/>
      <point x="231" y="711"/>
      <point x="440" y="711" type="curve" smooth="yes"/>
      <point x="653" y="711"/>
      <point x="801" y="550"/>
    </contour>
    <contour>
      <point x="563" y="248" type="curve"/>
      <point x="563" y="356" type="line"/>
      <point x="528" y="377"/>
      <point x="481" y="395"/>
      <point x="425" y="395" type="curve" smooth="yes"/>
      <point x="348" y="395"/>
      <point x="283" y="352"/>
      <point x="283" y="269" type="curve" smooth="yes"/>
      <point x="283" y="185"/>
      <point x="351" y="157"/>
      <point x="416" y="157" type="curve" smooth="yes"/>
      <point x="477" y="157"/>
      <point x="530" y="194"/>
    </contour>
  </outline>
</glyph>
<glyph name="A" format="1">
  <advance width="642"/>
  <unicode hex="0041"/>
  <outline>
    <contour>
      <point x="143" y="212" type="line"/>
      <point x="32" y="-1" type="line"/>
      <point x="28" y="0" type="line"/>
      <point x="397" y="705" type="line"/>
      <point x="401" y="704" type="line"/>
      <point x="522" y="0" type="line"/>
      <point x="518" y="0" type="line"/>
      <point x="482" y="212" type="line"/>
    </contour>
    <contour>
      <point x="481" y="216" type="line"/>
      <point x="398" y="698" type="line"/>
      <point x="145" y="216" type="line"/>
    </contour>
  </outline>
</glyph>
<glyph name="B" format="1">
  <advance width="577"/>
  <unicode hex="0042"/>
  <outline>
    <contour>
      <point x="56" y="0" type="line"/>
      <point x="180" y="700" type="line"/>
      <point x="357" y="700" type="line" smooth="yes"/>
      <point x="451" y="700"/>
      <point x="518" y="664"/>
      <point x="518" y="567" type="curve" smooth="yes"/>
      <point x="518" y="453"/>
      <point x="429" y="384"/>
      <point x="350" y="380" type="curve"/>
      <point x="410" y="374"/>
      <point x="503" y="333"/>
      <point x="503" y="217" type="curve" smooth="yes"/>
      <point x="503" y="89"/>
      <point x="411" y="0"/>
      <point x="242" y="0" type="curve" smooth="yes"/>
    </contour>
    <contour>
      <point x="332" y="382" type="line" smooth="yes"/>
      <point x="425" y="382"/>
      <point x="514" y="454"/>
      <point x="514" y="567" type="curve" smooth="yes"/>
      <point x="514" y="660"/>
      <point x="449" y="696"/>
      <point x="357" y="696" type="curve" smooth="yes"/>
      <point x="184" y="696" type="line"/>
      <point x="128" y="382" type="line"/>
    </contour>
    <contour>
      <point x="127" y="378" type="line"/>
      <point x="61" y="4" type="line"/>
      <point x="242" y="4" type="line" smooth="yes"/>
      <point x="409" y="4"/>
      <point x="499" y="91"/>
      <point x="499" y="217" type="curve" smooth="yes"/>
      <point x="499" y="339"/>
      <point x="392" y="378"/>
      <point x="331" y="378" type="curve" smooth="yes"/>
    </contour>
  </outline>
</glyph>
<glyph name="C" format="1">
  <advance width="604"/>
  <unicode hex="0043"/>
  <outline>
    <contour>
      <point x="499" y="46" type="line"/>
      <point x="450" y="9"/>
      <point x="388" y="-11"/>
      <point x="330" y="-11" type="curve" smooth="yes"/>
      <point x="187" y="-11"/>
      <point x="84" y="93"/>
      <point x="84" y="274" type="curve" smooth="yes"/>
      <point x="84" y="493"/>
      <point x="213" y="711"/>
      <point x="420" y="711" type="curve" smooth="yes"/>
      <point x="496" y="711"/>
      <point x="559" y="679"/>
      <point x="592" y="641" type="curve"/>
      <point x="589" y="638" type="line"/>
      <point x="557" y="675"/>
      <point x="494" y="707"/>
      <point x="420" y="707" type="curve" smooth="yes"/>
      <point x="217" y="707"/>
      <point x="88" y="493"/>
      <point x="88" y="274" type="curve" smooth="yes"/>
      <point x="88" y="95"/>
      <point x="189" y="-7"/>
      <point x="330" y="-7" type="curve" smooth="yes"/>
      <point x="387" y="-7"/>
      <point x="444" y="11"/>
      <point x="497" y="49" type="curve"/>
    </contour>
  </outline>
</glyph>
<glyph name="D" format="1">
  <advance width="660"/>
  <unicode hex="0044"/>
  <outline>
    <contour>
      <point x="600" y="431" type="curve" smooth="yes"/>
      <point x="600" y="185"/>
      <point x="473" y="0"/>
      <point x="229" y="0" type="curve" smooth="yes"/>
      <point x="56" y="0" type="line"/>
      <point x="180" y="700" type="line"/>
      <point x="348" y="700" type="line" smooth="yes"/>
      <point x="509" y="700"/>
      <point x="600" y="612"/>
    </contour>
    <contour>
      <point x="596" y="431" type="curve" smooth="yes"/>
      <point x="596" y="609"/>
      <point x="507" y="696"/>
      <point x="348" y="696" type="curve" smooth="yes"/>
      <point x="184" y="696" type="line"/>
      <point x="61" y="4" type="line"/>
      <point x="229" y="4" type="line" smooth="yes"/>
      <point x="471" y="4"/>
      <point x="596" y="187"/>
    </contour>
  </outline>
</glyph>
<glyph name="E" format="1">
  <advance width="510"/>
  <unicode hex="0045"/>
  <outline>
    <contour>
      <point x="539" y="700" type="line"/>
      <point x="538" y="696" type="line"/>
      <point x="184" y="696" type="line"/>
      <point x="127" y="375" type="line"/>
      <point x="352" y="375" type="line"/>
      <point x="351" y="371" type="line"/>
      <point x="126" y="371" type="line"/>
      <point x="61" y="4" type="line"/>
      <point x="432" y="4" type="line"/>
      <point x="431" y="0" type="line"/>
      <point x="56" y="0" type="line"/>
      <point x="180" y="700" type="line"/>
    </contour>
  </outline>
</glyph>
<glyph name="F" format="1">
  <advance width="487"/>
  <unicode hex="0046"/>
  <outline>
    <contour>
      <point x="525" y="700" type="line"/>
      <point x="524" y="696" type="line"/>
      <point x="184" y="696" type="line"/>
      <point x="125" y="362" type="line"/>
      <point x="340" y="362" type="line"/>
      <point x="339" y="358" type="line"/>
      <point x="124" y="358" type="line"/>
      <point x="60" y="0" type="line"/>
      <point x="56" y="0" type="line"/>
      <point x="180" y="700" type="line"/>
    </contour>
  </outline>
</glyph>
<glyph name="G" format="1">
  <advance width="661"/>
  <unicode hex="0047"/>
  <outline>
    <contour>
      <point x="615" y="621" type="curve"/>
      <point x="612" y="618" type="line"/>
      <point x="572" y="667"/>
      <point x="508" y="707"/>
      <point x="412" y="707" type="curve" smooth="yes"/>
      <point x="211" y="707"/>
      <point x="89" y="482"/>
      <point x="89" y="269" type="curve" smooth="yes"/>
      <point x="89" y="85"/>
      <point x="187" y="-7"/>
      <point x="331" y="-7" type="curve" smooth="yes"/>
      <point x="467" y="-7"/>
      <point x="567" y="85"/>
      <point x="588" y="265" type="curve" smooth="yes"/>
      <point x="592" y="299" type="line"/>
      <point x="403" y="299" type="line"/>
      <point x="404" y="303" type="line"/>
      <point x="596" y="303" type="line"/>
      <point x="592" y="265" type="line" smooth="yes"/>
      <point x="573" y="83"/>
      <point x="469" y="-11"/>
      <point x="331" y="-11" type="curve" smooth="yes"/>
      <point x="185" y="-11"/>
      <point x="85" y="83"/>
      <point x="85" y="269" type="curve" smooth="yes"/>
      <point x="85" y="482"/>
      <point x="207" y="711"/>
      <point x="412" y="711" type="curve" smooth="yes"/>
      <point x="511" y="711"/>
      <point x="574" y="670"/>
    </contour>
  </outline>
</glyph>
<glyph name="H" format="1">
  <advance width="652"/>
  <unicode hex="0048"/>
  <outline>
    <contour>
      <point x="628" y="700" type="line"/>
      <point x="504" y="0" type="line"/>
      <point x="500" y="0" type="line"/>
      <point x="564" y="365" type="line"/>
      <point x="125" y="365" type="line"/>
      <point x="60" y="0" type="line"/>
      <point x="56" y="0" type="line"/>
      <point x="180" y="700" type="line"/>
      <point x="184" y="700" type="line"/>
      <point x="126" y="369" type="line"/>
      <point x="565" y="369" type="line"/>
      <point x="624" y="700" type="line"/>
    </contour>
  </outline>
</glyph>
<glyph name="I" format="1">
  <advance width="218"/>
  <unicode hex="0049"/>
  <outline>
    <contour>
      <point x="188" y="700" type="line"/>
      <point x="65" y="0" type="line"/>
      <point x="61" y="0" type="line"/>
      <point x="184" y="700" type="line"/>
    </contour>
  </outline>
</glyph>
<glyph name="J" format="1">
  <advance width="533"/>
  <unicode hex="004A"/>
  <outline>
    <contour>
      <point x="517" y="700" type="line"/>
      <point x="430" y="208" type="line" smooth="yes"/>
      <point x="404" y="61"/>
      <point x="331" y="-11"/>
      <point x="209" y="-11" type="curve" smooth="yes"/>
      <point x="112" y="-11"/>
      <point x="49" y="32"/>
      <point x="22" y="115" type="curve"/>
      <point x="26" y="116" type="line"/>
      <point x="53" y="35"/>
      <point x="113" y="-7"/>
      <point x="209" y="-7" type="curve" smooth="yes"/>
      <point x="330" y="-7"/>
      <point x="401" y="66"/>
      <point x="426" y="208" type="curve" smooth="yes"/>
      <point x="513" y="700" type="line"/>
    </contour>
  </outline>
</glyph>
<glyph name="K" format="1">
  <advance width="579"/>
  <unicode hex="004B"/>
  <outline>
    <contour>
      <point x="583" y="700" type="line"/>
      <point x="301" y="403" type="line"/>
      <point x="481" y="0" type="line"/>
      <point x="477" y="-1" type="line"/>
      <point x="298" y="400" type="line"/>
      <point x="93" y="184" type="line"/>
      <point x="60" y="0" type="line"/>
      <point x="56" y="0" type="line"/>
      <point x="180" y="700" type="line"/>
      <point x="184" y="700" type="line"/>
      <point x="94" y="191" type="line"/>
      <point x="578" y="700" type="line"/>
    </contour>
  </outline>
</glyph>
<glyph name="L" format="1">
  <advance width="487"/>
  <unicode hex="004C"/>
  <outline>
    <contour>
      <point x="401" y="4" type="line"/>
      <point x="400" y="0" type="line"/>
      <point x="56" y="0" type="line"/>
      <point x="180" y="700" type="line"/>
      <point x="184" y="700" type="line"/>
      <point x="61" y="4" type="line"/>
    </contour>
  </outline>
</glyph>
<glyph name="M" format="1">
  <advance width="788"/>
  <unicode hex="004D"/>
  <outline>
    <contour>
      <point x="765" y="700" type="line"/>
      <point x="641" y="0" type="line"/>
      <point x="637" y="0" type="line"/>
      <point x="759" y="689" type="line"/>
      <point x="352" y="0" type="line"/>
      <point x="347" y="0" type="line"/>
      <point x="182" y="689" type="line"/>
      <point x="60" y="0" type="line"/>
      <point x="56" y="0" type="line"/>
      <point x="179" y="694" type="line"/>
      <point x="184" y="698" type="line"/>
      <point x="350" y="4" type="line"/>
      <point x="761" y="700" type="line"/>
    </contour>
  </outline>
</glyph>
<glyph name="N" format="1">
  <advance width="648"/>
  <unicode hex="004E"/>
  <outline>
    <contour>
      <point x="616" y="700" type="line"/>
      <point x="492" y="0" type="line"/>
      <point x="488" y="-2" type="line"/>
      <point x="183" y="694" type="line"/>
      <point x="60" y="0" type="line"/>
      <point x="56" y="0" type="line"/>
      <point x="180" y="700" type="line"/>
      <point x="185" y="700" type="line"/>
      <point x="489" y="6" type="line"/>
      <point x="612" y="700" type="line"/>
    </contour>
  </outline>
</glyph>
<glyph name="O" format="1">
  <advance width="724"/>
  <unicode hex="004F"/>
  <outline>
    <contour>
      <point x="667" y="427" type="curve" smooth="yes"/>
      <point x="667" y="206"/>
      <point x="544" y="-11"/>
      <point x="335" y="-11" type="curve" smooth="yes"/>
      <point x="185" y="-11"/>
      <point x="85" y="92"/>
      <point x="85" y="271" type="curve" smooth="yes"/>
      <point x="85" y="492"/>
      <point x="210" y="711"/>
      <point x="419" y="711" type="curve" smooth="yes"/>
      <point x="569" y="711"/>
      <point x="667" y="606"/>
    </contour>
    <contour>
      <point x="663" y="427" type="curve" smooth="yes"/>
      <point x="663" y="604"/>
      <point x="566" y="707"/>
      <point x="419" y="707" type="curve" smooth="yes"/>
      <point x="214" y="707"/>
      <point x="89" y="492"/>
      <point x="89" y="271" type="curve" smooth="yes"/>
      <point x="89" y="94"/>
      <point x="188" y="-7"/>
      <point x="335" y="-7" type="curve" smooth="yes"/>
      <point x="540" y="-7"/>
      <point x="663" y="206"/>
    </contour>
  </outline>
</glyph>
<glyph name="P" format="1">
  <advance width="558"/>
  <unicode hex="0050"/>
  <outline>
    <contour>
      <point x="558" y="557" type="curve" smooth="yes"/>
      <point x="558" y="420"/>
      <point x="483" y="313"/>
      <point x="275" y="313" type="curve" smooth="yes"/>
      <point x="116" y="313" type="line"/>
      <point x="60" y="0" type="line"/>
      <point x="56" y="0" type="line"/>
      <point x="180" y="700" type="line"/>
      <point x="357" y="700" type="line" smooth="yes"/>
      <point x="483" y="700"/>
      <point x="558" y="658"/>
    </contour>
    <contour>
      <point x="554" y="557" type="curve" smooth="yes"/>
      <point x="554" y="655"/>
      <point x="480" y="696"/>
      <point x="356" y="696" type="curve" smooth="yes"/>
      <point x="184" y="696" type="line"/>
      <point x="117" y="317" type="line"/>
      <point x="276" y="317" type="line" smooth="yes"/>
      <point x="479" y="317"/>
      <point x="554" y="422"/>
    </contour>
  </outline>
</glyph>
<glyph name="Q" format="1">
  <advance width="724"/>
  <unicode hex="0051"/>
  <outline>
    <contour>
      <point x="477" y="27" type="curve"/>
      <point x="500" y="-22" type="line"/>
      <point x="496" y="-24" type="line"/>
      <point x="473" y="25" type="line"/>
      <point x="432" y="2"/>
      <point x="386" y="-11"/>
      <point x="335" y="-11" type="curve" smooth="yes"/>
      <point x="185" y="-11"/>
      <point x="85" y="92"/>
      <point x="85" y="271" type="curve" smooth="yes"/>
      <point x="85" y="492"/>
      <point x="210" y="711"/>
      <point x="419" y="711" type="curve" smooth="yes"/>
      <point x="569" y="711"/>
      <point x="667" y="606"/>
      <point x="667" y="427" type="curve" smooth="yes"/>
      <point x="667" y="262"/>
      <point x="598" y="99"/>
    </contour>
    <contour>
      <point x="471" y="29" type="curve"/>
      <point x="415" y="150" type="line"/>
      <point x="419" y="152" type="line"/>
      <point x="475" y="31" type="line"/>
      <point x="594" y="102"/>
      <point x="663" y="263"/>
      <point x="663" y="427" type="curve" smooth="yes"/>
      <point x="663" y="604"/>
      <point x="566" y="707"/>
      <point x="419" y="707" type="curve" smooth="yes"/>
      <point x="214" y="707"/>
      <point x="89" y="492"/>
      <point x="89" y="271" type="curve" smooth="yes"/>
      <point x="89" y="94"/>
      <point x="188" y="-7"/>
      <point x="335" y="-7" type="curve" smooth="yes"/>
      <point x="386" y="-7"/>
      <point x="431" y="6"/>
    </contour>
  </outline>
</glyph>
<glyph name="R" format="1">
  <advance width="584"/>
  <unicode hex="0052"/>
  <outline>
    <contour>
      <point x="341" y="333" type="curve"/>
      <point x="451" y="1" type="line"/>
      <point x="447" y="-1" type="line"/>
      <point x="337" y="332" type="line"/>
      <point x="318" y="330"/>
      <point x="296" y="329"/>
      <point x="273" y="329" type="curve" smooth="yes"/>
      <point x="119" y="329" type="line"/>
      <point x="60" y="0" type="line"/>
      <point x="56" y="0" type="line"/>
      <point x="180" y="700" type="line"/>
      <point x="351" y="700" type="line" smooth="yes"/>
      <point x="474" y="700"/>
      <point x="558" y="663"/>
      <point x="558" y="556" type="curve" smooth="yes"/>
      <point x="558" y="443"/>
      <point x="504" y="352"/>
    </contour>
    <contour>
      <point x="120" y="333" type="line"/>
      <point x="273" y="333" type="line" smooth="yes"/>
      <point x="487" y="333"/>
      <point x="554" y="430"/>
      <point x="554" y="556" type="curve" smooth="yes"/>
      <point x="554" y="659"/>
      <point x="474" y="696"/>
      <point x="351" y="696" type="curve" smooth="yes"/>
      <point x="184" y="696" type="line"/>
    </contour>
  </outline>
</glyph>
<glyph name="S" format="1">
  <advance width="556"/>
  <unicode hex="0053"/>
  <outline>
    <contour>
      <point x="532" y="641" type="curve"/>
      <point x="530" y="637" type="line"/>
      <point x="484" y="673"/>
      <point x="426" y="707"/>
      <point x="333" y="707" type="curve" smooth="yes"/>
      <point x="178" y="707"/>
      <point x="133" y="605"/>
      <point x="133" y="528" type="curve" smooth="yes"/>
      <point x="133" y="463"/>
      <point x="168" y="421"/>
      <point x="287" y="365" type="curve" smooth="yes"/>
      <point x="413" y="306"/>
      <point x="461" y="257"/>
      <point x="461" y="182" type="curve" smooth="yes"/>
      <point x="461" y="69"/>
      <point x="374" y="-11"/>
      <point x="250" y="-11" type="curve" smooth="yes"/>
      <point x="157" y="-11"/>
      <point x="92" y="18"/>
      <point x="34" y="69" type="curve"/>
      <point x="36" y="73" type="line"/>
      <point x="94" y="22"/>
      <point x="158" y="-7"/>
      <point x="250" y="-7" type="curve" smooth="yes"/>
      <point x="372" y="-7"/>
      <point x="457" y="71"/>
      <point x="457" y="182" type="curve" smooth="yes"/>
      <point x="457" y="255"/>
      <point x="411" y="302"/>
      <point x="285" y="361" type="curve" smooth="yes"/>
      <point x="166" y="417"/>
      <point x="129" y="461"/>
      <point x="129" y="528" type="curve" smooth="yes"/>
      <point x="129" y="608"/>
      <point x="177" y="711"/>
      <point x="333" y="711" type="curve" smooth="yes"/>
      <point x="427" y="711"/>
      <point x="486" y="677"/>
    </contour>
  </outline>
</glyph>
<glyph name="T" format="1">
  <advance width="552"/>
  <unicode hex="0054"/>
  <outline>
    <contour>
      <point x="582" y="700" type="line"/>
      <point x="581" y="696" type="line"/>
      <point x="352" y="696" type="line"/>
      <point x="230" y="0" type="line"/>
      <point x="226" y="0" type="line"/>
      <point x="348" y="696" type="line"/>
      <point x="119" y="696" type="line"/>
      <point x="120" y="700" type="line"/>
    </contour>
  </outline>
</glyph>
<glyph name="U" format="1">
  <advance width="649"/>
  <unicode hex="0055"/>
  <outline>
    <contour>
      <point x="626" y="700" type="line"/>
      <point x="546" y="238" type="line" smooth="yes"/>
      <point x="514" y="52"/>
      <point x="414" y="-11"/>
      <point x="296" y="-11" type="curve" smooth="yes"/>
      <point x="135" y="-11"/>
      <point x="64" y="80"/>
      <point x="95" y="255" type="curve" smooth="yes"/>
      <point x="175" y="700" type="line"/>
      <point x="179" y="700" type="line"/>
      <point x="99" y="255" type="line" smooth="yes"/>
      <point x="68" y="82"/>
      <point x="138" y="-7"/>
      <point x="296" y="-7" type="curve" smooth="yes"/>
      <point x="412" y="-7"/>
      <point x="510" y="54"/>
      <point x="542" y="238" type="curve" smooth="yes"/>
      <point x="622" y="700" type="line"/>
    </contour>
  </outline>
</glyph>
<glyph name="V" format="1">
  <advance width="642"/>
  <unicode hex="0056"/>
  <outline>
    <contour>
      <point x="643" y="700" type="line"/>
      <point x="274" y="-4" type="line"/>
      <point x="270" y="-4" type="line"/>
      <point x="149" y="700" type="line"/>
      <point x="153" y="700" type="line"/>
      <point x="273" y="2" type="line"/>
      <point x="639" y="701" type="line"/>
    </contour>
  </outline>
</glyph>
<glyph name="W" format="1">
  <advance width="896"/>
  <unicode hex="0057"/>
  <outline>
    <contour>
      <point x="896" y="699" type="line"/>
      <point x="607" y="-5" type="line"/>
      <point x="602" y="-5" type="line"/>
      <point x="524" y="692" type="line"/>
      <point x="200" y="-6" type="line"/>
      <point x="194" y="-3" type="line"/>
      <point x="154" y="701" type="line"/>
      <point x="158" y="700" type="line"/>
      <point x="198" y="-1" type="line"/>
      <point x="522" y="697" type="line"/>
      <point x="527" y="697" type="line"/>
      <point x="605" y="0" type="line"/>
      <point x="892" y="700" type="line"/>
    </contour>
  </outline>
</glyph>
<glyph name="X" format="1">
  <advance width="588"/>
  <unicode hex="0058"/>
  <outline>
    <contour>
      <point x="577" y="700" type="line"/>
      <point x="313" y="367" type="line"/>
      <point x="475" y="0" type="line"/>
      <point x="471" y="-2" type="line"/>
      <point x="310" y="363" type="line"/>
      <point x="21" y="0" type="line"/>
      <point x="17" y="1" type="line"/>
      <point x="308" y="367" type="line"/>
      <point x="161" y="699" type="line"/>
      <point x="165" y="701" type="line"/>
      <point x="311" y="371" type="line"/>
      <point x="573" y="700" type="line"/>
    </contour>
  </outline>
</glyph>
<glyph name="Y" format="1">
  <advance width="604"/>
  <unicode hex="0059"/>
  <outline>
    <contour>
      <point x="617" y="700" type="line"/>
      <point x="311" y="301" type="line"/>
      <point x="258" y="0" type="line"/>
      <point x="254" y="0" type="line"/>
      <point x="307" y="301" type="line"/>
      <point x="143" y="700" type="line"/>
      <point x="147" y="701" type="line"/>
      <point x="310" y="306" type="line"/>
      <point x="613" y="701" type="line"/>
    </contour>
  </outline>
</glyph>
<glyph name="Z" format="1">
  <advance width="573"/>
  <unicode hex="005A"/>
  <outline>
    <contour>
      <point x="574" y="702" type="line"/>
      <point x="573" y="697" type="line"/>
      <point x="19" y="2" type="line"/>
      <point x="451" y="2" type="line"/>
      <point x="450" y="-2" type="line"/>
      <point x="14" y="-2" type="line"/>
      <point x="15" y="3" type="line"/>
      <point x="569" y="698" type="line"/>
      <point x="160" y="698" type="line"/>
      <point x="161" y="702" type="line"/>
    </contour>
  </outline>
</glyph>
<glyph name="bracketleft" format="1">
  <advance width="310"/>
  <unicode hex="005B"/>
  <outline>
    <contour>
      <point x="319" y="700" type="line"/>
      <point x="318" y="696" type="line"/>
      <point x="187" y="696" type="line"/>
      <point x="46" y="-106" type="line"/>
      <point x="177" y="-106" type="line"/>
      <point x="176" y="-110" type="line"/>
      <point x="41" y="-110" type="line"/>
      <point x="183" y="700" type="line"/>
    </contour>
  </outline>
</glyph>
<glyph name="backslash" format="1">
  <advance width="400"/>
  <unicode hex="005C"/>
  <outline>
    <contour>
      <point x="283" y="-90" type="line"/>
      <point x="279" y="-90" type="line"/>
      <point x="148" y="790" type="line"/>
      <point x="152" y="790" type="line"/>
    </contour>
  </outline>
</glyph>
<glyph name="bracketright" format="1">
  <advance width="310"/>
  <unicode hex="005D"/>
  <outline>
    <contour>
      <point x="282" y="700" type="line"/>
      <point x="139" y="-110" type="line"/>
      <point x="3" y="-110" type="line"/>
      <point x="4" y="-106" type="line"/>
      <point x="135" y="-106" type="line"/>
      <point x="277" y="696" type="line"/>
      <point x="145" y="696" type="line"/>
      <point x="146" y="700" type="line"/>
    </contour>
  </outline>
</glyph>
<glyph name="asciicircum" format="1">
  <advance width="540"/>
  <unicode hex="005E"/>
  <outline>
    <contour>
      <point x="491" y="383" type="line"/>
      <point x="487" y="382" type="line"/>
      <point x="346" y="696" type="line"/>
      <point x="95" y="382" type="line"/>
      <point x="90" y="382" type="line"/>
      <point x="345" y="700" type="line"/>
      <point x="348" y="701" type="line"/>
    </contour>
  </outline>
</glyph>
<glyph name="underscore" format="1">
  <advance width="500"/>
  <unicode hex="005F"/>
  <outline>
    <contour>
      <point x="436" y="-103" type="line"/>
      <point x="435" y="-107" type="line"/>
      <point x="-65" y="-107" type="line"/>
      <point x="-64" y="-103" type="line"/>
    </contour>
  </outline>
</glyph>
<glyph name="grave" format="1">
  <advance width="500"/>
  <unicode hex="0060"/>
  <outline>
    <contour>
      <point x="350" y="596" type="line"/>
      <point x="346" y="595" type="line"/>
      <point x="266" y="725" type="line"/>
      <point x="270" y="726" type="line"/>
    </contour>
  </outline>
</glyph>
<glyph name="a" format="1">
  <advance width="519"/>
  <unicode hex="0061"/>
  <outline>
    <contour>
      <point x="390" y="0" type="line"/>
      <point x="386" y="0" type="line"/>
      <point x="404" y="103" type="line"/>
      <point x="352" y="43"/>
      <point x="272" y="-11"/>
      <point x="189" y="-11" type="curve" smooth="yes"/>
      <point x="103" y="-11"/>
      <point x="34" y="36"/>
      <point x="34" y="135" type="curve" smooth="yes"/>
      <point x="34" y="241"/>
      <point x="113" y="314"/>
      <point x="241" y="314" type="curve" smooth="yes"/>
      <point x="320" y="314"/>
      <point x="387" y="283"/>
      <point x="430" y="252" type="curve"/>
      <point x="447" y="350" type="line" smooth="yes"/>
      <point x="470" y="480"/>
      <point x="422" y="532"/>
      <point x="293" y="532" type="curve" smooth="yes"/>
      <point x="243" y="532"/>
      <point x="194" y="519"/>
      <point x="146" y="501" type="curve"/>
      <point x="145" y="505" type="line"/>
      <point x="193" y="523"/>
      <point x="243" y="536"/>
      <point x="293" y="536" type="curve" smooth="yes"/>
      <point x="424" y="536"/>
      <point x="474" y="483"/>
      <point x="451" y="350" type="curve" smooth="yes"/>
    </contour>
    <contour>
      <point x="429" y="248" type="line"/>
      <point x="386" y="278"/>
      <point x="319" y="310"/>
      <point x="241" y="310" type="curve" smooth="yes"/>
      <point x="115" y="310"/>
      <point x="38" y="238"/>
      <point x="38" y="135" type="curve" smooth="yes"/>
      <point x="38" y="38"/>
      <point x="105" y="-7"/>
      <point x="189" y="-7" type="curve" smooth="yes"/>
      <point x="274" y="-7"/>
      <point x="355" y="51"/>
      <point x="405" y="110" type="curve"/>
    </contour>
  </outline>
</glyph>
<glyph name="b" format="1">
  <advance width="542"/>
  <unicode hex="0062"/>
  <outline>
    <contour>
      <point x="122" y="421" type="line"/>
      <point x="166" y="475"/>
      <point x="246" y="536"/>
      <point x="333" y="536" type="curve" smooth="yes"/>
      <point x="425" y="536"/>
      <point x="490" y="477"/>
      <point x="490" y="345" type="curve" smooth="yes"/>
      <point x="490" y="161"/>
      <point x="397" y="-11"/>
      <point x="253" y="-11" type="curve" smooth="yes"/>
      <point x="160" y="-11"/>
      <point x="95" y="55"/>
      <point x="66" y="105" type="curve"/>
      <point x="48" y="2" type="line"/>
      <point x="44" y="2" type="line"/>
      <point x="171" y="723" type="line"/>
      <point x="176" y="730" type="line"/>
    </contour>
    <contour>
      <point x="67" y="111" type="line"/>
      <point x="99" y="56"/>
      <point x="161" y="-7"/>
      <point x="253" y="-7" type="curve" smooth="yes"/>
      <point x="394" y="-7"/>
      <point x="486" y="161"/>
      <point x="486" y="345" type="curve" smooth="yes"/>
      <point x="486" y="475"/>
      <point x="423" y="532"/>
      <point x="333" y="532" type="curve" smooth="yes"/>
      <point x="247" y="532"/>
      <point x="165" y="471"/>
      <point x="120" y="412" type="curve"/>
    </contour>
  </outline>
</glyph>
<glyph name="c" format="1">
  <advance width="483"/>
  <unicode hex="0063"/>
  <outline>
    <contour>
      <point x="383" y="33" type="line"/>
      <point x="345" y="5"/>
      <point x="294" y="-11"/>
      <point x="239" y="-11" type="curve" smooth="yes"/>
      <point x="130" y="-11"/>
      <point x="52" y="55"/>
      <point x="52" y="199" type="curve" smooth="yes"/>
      <point x="52" y="406"/>
      <point x="184" y="535"/>
      <point x="306" y="535" type="curve" smooth="yes"/>
      <point x="386" y="535"/>
      <point x="435" y="496"/>
      <point x="458" y="472" type="curve"/>
      <point x="455" y="469" type="line"/>
      <point x="432" y="492"/>
      <point x="386" y="531"/>
      <point x="306" y="531" type="curve" smooth="yes"/>
      <point x="186" y="531"/>
      <point x="56" y="404"/>
      <point x="56" y="199" type="curve" smooth="yes"/>
      <point x="56" y="58"/>
      <point x="132" y="-7"/>
      <point x="239" y="-7" type="curve" smooth="yes"/>
      <point x="295" y="-7"/>
      <point x="345" y="10"/>
      <point x="380" y="36" type="curve"/>
    </contour>
  </outline>
</glyph>
<glyph name="e" format="1">
  <advance width="532"/>
  <unicode hex="0065"/>
  <outline>
    <contour>
      <point x="62" y="264" type="line"/>
      <point x="60" y="245"/>
      <point x="58" y="222"/>
      <point x="58" y="199" type="curve" smooth="yes"/>
      <point x="58" y="41"/>
      <point x="155" y="-7"/>
      <point x="252" y="-7" type="curve" smooth="yes"/>
      <point x="308" y="-7"/>
      <point x="351" y="6"/>
      <point x="394" y="25" type="curve"/>
      <point x="396" y="21" type="line"/>
      <point x="353" y="2"/>
      <point x="308" y="-11"/>
      <point x="252" y="-11" type="curve" smooth="yes"/>
      <point x="153" y="-11"/>
      <point x="54" y="37"/>
      <point x="54" y="199" type="curve" smooth="yes"/>
      <point x="54" y="399"/>
      <point x="171" y="536"/>
      <point x="301" y="536" type="curve" smooth="yes"/>
      <point x="427" y="536"/>
      <point x="469" y="430"/>
      <point x="469" y="320" type="curve" smooth="yes"/>
      <point x="469" y="302"/>
      <point x="468" y="281"/>
      <point x="466" y="264" type="curve"/>
    </contour>
    <contour>
      <point x="63" y="268" type="curve"/>
      <point x="462" y="268" type="line"/>
      <point x="464" y="284"/>
      <point x="465" y="303"/>
      <point x="465" y="320" type="curve" smooth="yes"/>
      <point x="465" y="428"/>
      <point x="425" y="532"/>
      <point x="301" y="532" type="curve" smooth="yes"/>
      <point x="189" y="532"/>
      <point x="86" y="428"/>
    </contour>
  </outline>
</glyph>
<glyph name="g" format="1">
  <advance width="542"/>
  <unicode hex="0067"/>
  <outline>
    <contour>
      <point x="413" y="43" type="line" smooth="yes"/>
      <point x="386" y="-113"/>
      <point x="332" y="-188"/>
      <point x="127" y="-194" type="curve"/>
      <point x="125" y="-190" type="line"/>
      <point x="327" y="-184"/>
      <point x="381" y="-114"/>
      <point x="409" y="43" type="curve" smooth="yes"/>
      <point x="420" y="105" type="line"/>
      <point x="376" y="51"/>
      <point x="295" y="-11"/>
      <point x="208" y="-11" type="curve" smooth="yes"/>
      <point x="116" y="-11"/>
      <point x="51" y="48"/>
      <point x="51" y="180" type="curve" smooth="yes"/>
      <point x="51" y="364"/>
      <point x="144" y="536"/>
      <point x="288" y="536" type="curve" smooth="yes"/>
      <point x="381" y="536"/>
      <point x="446" y="470"/>
      <point x="475" y="420" type="curve"/>
      <point x="493" y="523" type="line"/>
      <point x="497" y="523" type="line"/>
    </contour>
    <contour>
      <point x="474" y="414" type="line"/>
      <point x="442" y="469"/>
      <point x="380" y="532"/>
      <point x="288" y="532" type="curve" smooth="yes"/>
      <point x="147" y="532"/>
      <point x="55" y="364"/>
      <point x="55" y="180" type="curve" smooth="yes"/>
      <point x="55" y="50"/>
      <point x="118" y="-7"/>
      <point x="208" y="-7" type="curve" smooth="yes"/>
      <point x="294" y="-7"/>
      <point x="376" y="54"/>
      <point x="421" y="113" type="curve"/>
    </contour>
  </outline>
</glyph>
<glyph name="h" format="1">
  <advance width="559"/>
  <unicode hex="0068"/>
  <outline>
    <contour>
      <point x="117" y="392" type="line"/>
      <point x="152" y="478"/>
      <point x="224" y="536"/>
      <point x="320" y="536" type="curve" smooth="yes"/>
      <point x="435" y="536"/>
      <point x="513" y="474"/>
      <point x="485" y="317" type="curve" smooth="yes"/>
      <point x="428" y="0" type="line"/>
      <point x="424" y="0" type="line"/>
      <point x="481" y="317" type="line" smooth="yes"/>
      <point x="509" y="472"/>
      <point x="433" y="532"/>
      <point x="320" y="532" type="curve" smooth="yes"/>
      <point x="219" y="532"/>
      <point x="146" y="468"/>
      <point x="114" y="373" type="curve"/>
      <point x="48" y="0" type="line"/>
      <point x="44" y="0" type="line"/>
      <point x="172" y="722" type="line"/>
      <point x="177" y="729" type="line"/>
    </contour>
  </outline>
</glyph>
<glyph name="i" format="1">
  <advance width="194"/>
  <unicode hex="0069"/>
  <outline>
    <contour>
      <point x="166" y="640" type="line"/>
      <point x="162" y="640" type="line"/>
      <point x="172" y="700" type="line"/>
      <point x="176" y="700" type="line"/>
    </contour>
    <contour>
      <point x="53" y="0" type="line"/>
      <point x="49" y="0" type="line"/>
      <point x="141" y="525" type="line"/>
      <point x="145" y="525" type="line"/>
    </contour>
  </outline>
</glyph>
<glyph name="j" format="1">
  <advance width="194"/>
  <unicode hex="006A"/>
  <outline>
    <contour>
      <point x="176" y="700" type="line"/>
      <point x="166" y="640" type="line"/>
      <point x="162" y="640" type="line"/>
      <point x="172" y="700" type="line"/>
    </contour>
    <contour>
      <point x="145" y="525" type="line"/>
      <point x="49" y="-23" type="line" smooth="yes"/>
      <point x="30" y="-131"/>
      <point x="-1" y="-173"/>
      <point x="-76" y="-195" type="curve"/>
      <point x="-80" y="-192" type="line"/>
      <point x="-4" y="-171"/>
      <point x="27" y="-128"/>
      <point x="45" y="-23" type="curve" smooth="yes"/>
      <point x="141" y="525" type="line"/>
    </contour>
  </outline>
</glyph>
<glyph name="k" format="1">
  <advance width="476"/>
  <unicode hex="006B"/>
  <outline>
    <contour>
      <point x="231" y="306" type="line"/>
      <point x="70" y="136" type="line"/>
      <point x="46" y="0" type="line"/>
      <point x="42" y="0" type="line"/>
      <point x="170" y="722" type="line"/>
      <point x="175" y="729" type="line"/>
      <point x="71" y="142" type="line"/>
      <point x="433" y="525" type="line"/>
      <point x="438" y="525" type="line"/>
      <point x="234" y="309" type="line"/>
      <point x="383" y="1" type="line"/>
      <point x="379" y="0" type="line"/>
    </contour>
  </outline>
</glyph>
<glyph name="l" format="1">
  <advance width="194"/>
  <unicode hex="006C"/>
  <outline>
    <contour>
      <point x="48" y="0" type="line"/>
      <point x="44" y="0" type="line"/>
      <point x="171" y="722" type="line"/>
      <point x="176" y="729" type="line"/>
    </contour>
  </outline>
</glyph>
<glyph name="m" format="1">
  <advance width="932"/>
  <unicode hex="006D"/>
  <outline>
    <contour>
      <point x="488" y="356" type="curve" smooth="yes"/>
      <point x="424" y="0" type="line"/>
      <point x="420" y="0" type="line"/>
      <point x="481" y="339" type="line" smooth="yes"/>
      <point x="503" y="463"/>
      <point x="439" y="532"/>
      <point x="326" y="532" type="curve" smooth="yes"/>
      <point x="225" y="532"/>
      <point x="146" y="468"/>
      <point x="114" y="373" type="curve"/>
      <point x="48" y="0" type="line"/>
      <point x="44" y="0" type="line"/>
      <point x="137" y="525" type="line"/>
      <point x="141" y="525" type="line"/>
      <point x="117" y="392" type="line"/>
      <point x="152" y="478"/>
      <point x="230" y="536"/>
      <point x="326" y="536" type="curve" smooth="yes"/>
      <point x="430" y="536"/>
      <point x="493" y="477"/>
      <point x="489" y="376" type="curve"/>
      <point x="517" y="467"/>
      <point x="595" y="536"/>
      <point x="702" y="536" type="curve" smooth="yes"/>
      <point x="812" y="536"/>
      <point x="886" y="474"/>
      <point x="858" y="317" type="curve" smooth="yes"/>
      <point x="801" y="0" type="line"/>
      <point x="797" y="0" type="line"/>
      <point x="854" y="317" type="line" smooth="yes"/>
      <point x="882" y="472"/>
      <point x="809" y="532"/>
      <point x="702" y="532" type="curve" smooth="yes"/>
      <point x="599" y="532"/>
      <point x="508" y="466"/>
    </contour>
  </outline>
</glyph>
<glyph name="n" format="1">
  <advance width="559"/>
  <unicode hex="006E"/>
  <outline>
    <contour>
      <point x="114" y="392" type="line"/>
      <point x="149" y="478"/>
      <point x="221" y="536"/>
      <point x="317" y="536" type="curve" smooth="yes"/>
      <point x="432" y="536"/>
      <point x="510" y="474"/>
      <point x="482" y="317" type="curve" smooth="yes"/>
      <point x="425" y="0" type="line"/>
      <point x="421" y="0" type="line"/>
      <point x="478" y="317" type="line" smooth="yes"/>
      <point x="506" y="472"/>
      <point x="430" y="532"/>
      <point x="317" y="532" type="curve" smooth="yes"/>
      <point x="216" y="532"/>
      <point x="143" y="468"/>
      <point x="111" y="373" type="curve"/>
      <point x="45" y="0" type="line"/>
      <point x="41" y="0" type="line"/>
      <point x="134" y="525" type="line"/>
      <point x="138" y="525" type="line"/>
    </contour>
  </outline>
</glyph>
<glyph name="o" format="1">
  <advance width="564"/>
  <unicode hex="006F"/>
  <outline>
    <contour>
      <point x="53" y="210" type="curve" smooth="yes"/>
      <point x="53" y="389"/>
      <point x="163" y="535"/>
      <point x="314" y="535" type="curve" smooth="yes"/>
      <point x="429" y="535"/>
      <point x="511" y="457"/>
      <point x="511" y="319" type="curve" smooth="yes"/>
      <point x="511" y="139"/>
      <point x="399" y="-10"/>
      <point x="248" y="-10" type="curve" smooth="yes"/>
      <point x="133" y="-10"/>
      <point x="53" y="73"/>
    </contour>
    <contour>
      <point x="57" y="210" type="curve" smooth="yes"/>
      <point x="57" y="75"/>
      <point x="136" y="-6"/>
      <point x="248" y="-6" type="curve" smooth="yes"/>
      <point x="396" y="-6"/>
      <point x="507" y="141"/>
      <point x="507" y="319" type="curve" smooth="yes"/>
      <point x="507" y="455"/>
      <point x="426" y="531"/>
      <point x="314" y="531" type="curve" smooth="yes"/>
      <point x="166" y="531"/>
      <point x="57" y="387"/>
    </contour>
  </outline>
</glyph>
<glyph name="p" format="1">
  <advance width="542"/>
  <unicode hex="0070"/>
  <outline>
    <contour>
      <point x="122" y="421" type="line"/>
      <point x="166" y="475"/>
      <point x="246" y="536"/>
      <point x="333" y="536" type="curve" smooth="yes"/>
      <point x="425" y="536"/>
      <point x="490" y="477"/>
      <point x="490" y="345" type="curve" smooth="yes"/>
      <point x="490" y="161"/>
      <point x="397" y="-11"/>
      <point x="253" y="-11" type="curve" smooth="yes"/>
      <point x="160" y="-11"/>
      <point x="95" y="55"/>
      <point x="66" y="105" type="curve"/>
      <point x="16" y="-179" type="line"/>
      <point x="11" y="-185" type="line"/>
      <point x="136" y="525" type="line"/>
      <point x="140" y="525" type="line"/>
    </contour>
    <contour>
      <point x="67" y="111" type="line"/>
      <point x="99" y="56"/>
      <point x="161" y="-7"/>
      <point x="253" y="-7" type="curve" smooth="yes"/>
      <point x="394" y="-7"/>
      <point x="486" y="161"/>
      <point x="486" y="345" type="curve" smooth="yes"/>
      <point x="486" y="475"/>
      <point x="423" y="532"/>
      <point x="333" y="532" type="curve" smooth="yes"/>
      <point x="247" y="532"/>
      <point x="165" y="471"/>
      <point x="120" y="412" type="curve"/>
    </contour>
  </outline>
</glyph>
<glyph name="q" format="1">
  <advance width="542"/>
  <unicode hex="0071"/>
  <outline>
    <contour>
      <point x="419" y="104" type="line"/>
      <point x="375" y="50"/>
      <point x="295" y="-11"/>
      <point x="208" y="-11" type="curve" smooth="yes"/>
      <point x="116" y="-11"/>
      <point x="51" y="48"/>
      <point x="51" y="180" type="curve" smooth="yes"/>
      <point x="51" y="364"/>
      <point x="144" y="536"/>
      <point x="288" y="536" type="curve" smooth="yes"/>
      <point x="381" y="536"/>
      <point x="446" y="470"/>
      <point x="475" y="420" type="curve"/>
      <point x="493" y="523" type="line"/>
      <point x="497" y="523" type="line"/>
      <point x="374" y="-179" type="line"/>
      <point x="369" y="-185" type="line"/>
    </contour>
    <contour>
      <point x="474" y="414" type="line"/>
      <point x="442" y="469"/>
      <point x="380" y="532"/>
      <point x="288" y="532" type="curve" smooth="yes"/>
      <point x="147" y="532"/>
      <point x="55" y="364"/>
      <point x="55" y="180" type="curve" smooth="yes"/>
      <point x="55" y="50"/>
      <point x="118" y="-7"/>
      <point x="208" y="-7" type="curve" smooth="yes"/>
      <point x="294" y="-7"/>
      <point x="376" y="54"/>
      <point x="421" y="113" type="curve"/>
    </contour>
  </outline>
</glyph>
<glyph name="r" format="1">
  <advance width="377"/>
  <unicode hex="0072"/>
  <outline>
    <contour>
      <point x="320" y="532" type="curve" smooth="yes"/>
      <point x="219" y="532"/>
      <point x="146" y="468"/>
      <point x="114" y="373" type="curve"/>
      <point x="48" y="0" type="line"/>
      <point x="44" y="0" type="line"/>
      <point x="137" y="525" type="line"/>
      <point x="141" y="525" type="line"/>
      <point x="117" y="392" type="line"/>
      <point x="152" y="478"/>
      <point x="224" y="536"/>
      <point x="320" y="536" type="curve" smooth="yes"/>
      <point x="355" y="536"/>
      <point x="386" y="525"/>
      <point x="408" y="515" type="curve"/>
      <point x="406" y="511" type="line"/>
      <point x="383" y="522"/>
      <point x="353" y="532"/>
    </contour>
  </outline>
</glyph>
<glyph name="s" format="1">
  <advance width="421"/>
  <unicode hex="0073"/>
  <outline>
    <contour>
      <point x="16" y="54" type="line"/>
      <point x="53" y="19"/>
      <point x="108" y="-7"/>
      <point x="175" y="-7" type="curve" smooth="yes"/>
      <point x="264" y="-7"/>
      <point x="332" y="38"/>
      <point x="332" y="129" type="curve" smooth="yes"/>
      <point x="332" y="188"/>
      <point x="302" y="220"/>
      <point x="211" y="268" type="curve" smooth="yes"/>
      <point x="116" y="319"/>
      <point x="93" y="350"/>
      <point x="93" y="409" type="curve" smooth="yes"/>
      <point x="93" y="482"/>
      <point x="146" y="536"/>
      <point x="238" y="536" type="curve" smooth="yes"/>
      <point x="309" y="536"/>
      <point x="369" y="497"/>
      <point x="386" y="479" type="curve"/>
      <point x="384" y="476" type="line"/>
      <point x="364" y="495"/>
      <point x="307" y="532"/>
      <point x="238" y="532" type="curve" smooth="yes"/>
      <point x="148" y="532"/>
      <point x="97" y="480"/>
      <point x="97" y="409" type="curve" smooth="yes"/>
      <point x="97" y="352"/>
      <point x="120" y="321"/>
      <point x="213" y="272" type="curve" smooth="yes"/>
      <point x="306" y="222"/>
      <point x="336" y="190"/>
      <point x="336" y="129" type="curve" smooth="yes"/>
      <point x="336" y="36"/>
      <point x="266" y="-11"/>
      <point x="175" y="-11" type="curve" smooth="yes"/>
      <point x="104" y="-11"/>
      <point x="49" y="17"/>
      <point x="14" y="51" type="curve"/>
    </contour>
  </outline>
</glyph>
<glyph name="t" format="1">
  <advance width="312"/>
  <unicode hex="0074"/>
  <outline>
    <contour>
      <point x="150" y="525" type="line"/>
      <point x="185" y="723" type="line"/>
      <point x="190" y="729" type="line"/>
      <point x="154" y="525" type="line"/>
      <point x="300" y="525" type="line"/>
      <point x="300" y="521" type="line"/>
      <point x="153" y="521" type="line"/>
      <point x="74" y="74" type="line" smooth="yes"/>
      <point x="66" y="26"/>
      <point x="86" y="-3"/>
      <point x="141" y="-3" type="curve" smooth="yes"/>
      <point x="175" y="-3"/>
      <point x="209" y="7"/>
      <point x="230" y="18" type="curve"/>
      <point x="232" y="14" type="line"/>
      <point x="211" y="3"/>
      <point x="175" y="-7"/>
      <point x="141" y="-7" type="curve" smooth="yes"/>
      <point x="84" y="-7"/>
      <point x="61" y="24"/>
      <point x="70" y="74" type="curve" smooth="yes"/>
      <point x="149" y="521" type="line"/>
      <point x="79" y="521" type="line"/>
      <point x="79" y="525" type="line"/>
    </contour>
  </outline>
</glyph>
<glyph name="u" format="1">
  <advance width="559"/>
  <unicode hex="0075"/>
  <outline>
    <contour>
      <point x="442" y="133" type="line"/>
      <point x="407" y="47"/>
      <point x="335" y="-11"/>
      <point x="239" y="-11" type="curve" smooth="yes"/>
      <point x="124" y="-11"/>
      <point x="46" y="51"/>
      <point x="74" y="208" type="curve" smooth="yes"/>
      <point x="131" y="525" type="line"/>
      <point x="135" y="525" type="line"/>
      <point x="78" y="208" type="line" smooth="yes"/>
      <point x="50" y="52"/>
      <point x="126" y="-7"/>
      <point x="239" y="-7" type="curve" smooth="yes"/>
      <point x="340" y="-7"/>
      <point x="413" y="57"/>
      <point x="445" y="152" type="curve"/>
      <point x="511" y="525" type="line"/>
      <point x="515" y="525" type="line"/>
      <point x="422" y="0" type="line"/>
      <point x="418" y="0" type="line"/>
    </contour>
  </outline>
</glyph>
<glyph name="v" format="1">
  <advance width="488"/>
  <unicode hex="0076"/>
  <outline>
    <contour>
      <point x="99" y="525" type="line"/>
      <point x="200" y="5" type="line"/>
      <point x="484" y="525" type="line"/>
      <point x="488" y="524" type="line"/>
      <point x="201" y="-1" type="line"/>
      <point x="197" y="0" type="line"/>
      <point x="95" y="525" type="line"/>
    </contour>
  </outline>
</glyph>
<glyph name="w" format="1">
  <advance width="704"/>
  <unicode hex="0077"/>
  <outline>
    <contour>
      <point x="101" y="524" type="line"/>
      <point x="147" y="7" type="line"/>
      <point x="394" y="515" type="line"/>
      <point x="399" y="515" type="line"/>
      <point x="469" y="9" type="line"/>
      <point x="698" y="526" type="line"/>
      <point x="702" y="525" type="line"/>
      <point x="470" y="2" type="line"/>
      <point x="466" y="2" type="line"/>
      <point x="396" y="510" type="line"/>
      <point x="148" y="0" type="line"/>
      <point x="144" y="2" type="line"/>
      <point x="97" y="525" type="line"/>
    </contour>
  </outline>
</glyph>
<glyph name="x" format="1">
  <advance width="472"/>
  <unicode hex="0078"/>
  <outline>
    <contour>
      <point x="239" y="283" type="line"/>
      <point x="432" y="525" type="line"/>
      <point x="437" y="525" type="line"/>
      <point x="241" y="279" type="line"/>
      <point x="365" y="1" type="line"/>
      <point x="361" y="-1" type="line"/>
      <point x="238" y="275" type="line"/>
      <point x="19" y="0" type="line"/>
      <point x="14" y="0" type="line"/>
      <point x="236" y="279" type="line"/>
      <point x="127" y="524" type="line"/>
      <point x="131" y="526" type="line"/>
    </contour>
  </outline>
</glyph>
<glyph name="y" format="1">
  <advance width="488"/>
  <unicode hex="0079"/>
  <outline>
    <contour>
      <point x="99" y="-185" type="line"/>
      <point x="95" y="-184" type="line"/>
      <point x="196" y="1" type="line"/>
      <point x="94" y="525" type="line"/>
      <point x="98" y="525" type="line"/>
      <point x="199" y="6" type="line"/>
      <point x="482" y="526" type="line"/>
      <point x="486" y="525" type="line"/>
    </contour>
  </outline>
</glyph>
<glyph name="z" format="1">
  <advance width="486"/>
  <unicode hex="007A"/>
  <outline>
    <contour>
      <point x="142" y="525" type="line"/>
      <point x="464" y="525" type="line"/>
      <point x="464" y="522" type="line"/>
      <point x="24" y="4" type="line"/>
      <point x="370" y="4" type="line"/>
      <point x="370" y="0" type="line"/>
      <point x="18" y="0" type="line"/>
      <point x="18" y="3" type="line"/>
      <point x="458" y="521" type="line"/>
      <point x="142" y="521" type="line"/>
    </contour>
  </outline>
</glyph>
<glyph name="braceleft" format="1">
  <advance width="350"/>
  <unicode hex="007B"/>
  <outline>
    <contour>
      <point x="229" y="-109" type="line"/>
      <point x="142" y="-99"/>
      <point x="98" y="-61"/>
      <point x="120" y="66" type="curve" smooth="yes"/>
      <point x="147" y="223" type="line" smooth="yes"/>
      <point x="152" y="250"/>
      <point x="141" y="294"/>
      <point x="92" y="294" type="curve" smooth="yes"/>
      <point x="57" y="294" type="line"/>
      <point x="58" y="298" type="line"/>
      <point x="93" y="298" type="line" smooth="yes"/>
      <point x="142" y="298"/>
      <point x="167" y="336"/>
      <point x="173" y="369" type="curve" smooth="yes"/>
      <point x="201" y="526" type="line" smooth="yes"/>
      <point x="225" y="663"/>
      <point x="281" y="691"/>
      <point x="373" y="701" type="curve"/>
      <point x="372" y="697" type="line"/>
      <point x="282" y="687"/>
      <point x="229" y="659"/>
      <point x="205" y="526" type="curve" smooth="yes"/>
      <point x="177" y="369" type="line" smooth="yes"/>
      <point x="170" y="331"/>
      <point x="143" y="300"/>
      <point x="107" y="296" type="curve"/>
      <point x="145" y="288"/>
      <point x="156" y="255"/>
      <point x="151" y="223" type="curve" smooth="yes"/>
      <point x="124" y="66" type="line" smooth="yes"/>
      <point x="102" y="-59"/>
      <point x="144" y="-95"/>
      <point x="230" y="-105" type="curve"/>
    </contour>
  </outline>
</glyph>
<glyph name="bar" format="1">
  <advance width="274"/>
  <unicode hex="007C"/>
  <outline>
    <contour>
      <point x="60" y="-185" type="line"/>
      <point x="56" y="-185" type="line"/>
      <point x="230" y="800" type="line"/>
      <point x="234" y="800" type="line"/>
    </contour>
  </outline>
</glyph>
<glyph name="braceright" format="1">
  <advance width="350"/>
  <unicode hex="007D"/>
  <outline>
    <contour>
      <point x="133" y="701" type="line"/>
      <point x="220" y="691"/>
      <point x="264" y="653"/>
      <point x="242" y="526" type="curve" smooth="yes"/>
      <point x="215" y="369" type="line" smooth="yes"/>
      <point x="210" y="342"/>
      <point x="221" y="298"/>
      <point x="270" y="298" type="curve" smooth="yes"/>
      <point x="305" y="298" type="line"/>
      <point x="304" y="294" type="line"/>
      <point x="269" y="294" type="line" smooth="yes"/>
      <point x="220" y="294"/>
      <point x="195" y="257"/>
      <point x="189" y="223" type="curve" smooth="yes"/>
      <point x="161" y="66" type="line" smooth="yes"/>
      <point x="137" y="-71"/>
      <point x="81" y="-99"/>
      <point x="-11" y="-109" type="curve"/>
      <point x="-10" y="-105" type="line"/>
      <point x="80" y="-95"/>
      <point x="133" y="-67"/>
      <point x="157" y="66" type="curve" smooth="yes"/>
      <point x="185" y="223" type="line" smooth="yes"/>
      <point x="192" y="262"/>
      <point x="219" y="292"/>
      <point x="255" y="296" type="curve"/>
      <point x="217" y="304"/>
      <point x="206" y="337"/>
      <point x="211" y="369" type="curve" smooth="yes"/>
      <point x="238" y="526" type="line" smooth="yes"/>
      <point x="260" y="651"/>
      <point x="218" y="687"/>
      <point x="132" y="697" type="curve"/>
    </contour>
  </outline>
</glyph>
<glyph name="asciitilde" format="1">
  <advance width="520"/>
  <unicode hex="007E"/>
  <outline>
    <contour>
      <point x="89" y="339" type="line"/>
      <point x="124" y="389"/>
      <point x="156" y="410"/>
      <point x="196" y="410" type="curve" smooth="yes"/>
      <point x="230" y="410"/>
      <point x="255" y="393"/>
      <point x="282" y="372" type="curve" smooth="yes"/>
      <point x="310" y="350"/>
      <point x="332" y="336"/>
      <point x="365" y="336" type="curve" smooth="yes"/>
      <point x="401" y="336"/>
      <point x="433" y="357"/>
      <point x="465" y="403" type="curve"/>
      <point x="468" y="401" type="line"/>
      <point x="436" y="354"/>
      <point x="403" y="332"/>
      <point x="365" y="332" type="curve" smooth="yes"/>
      <point x="332" y="332"/>
      <point x="308" y="347"/>
      <point x="280" y="369" type="curve" smooth="yes"/>
      <point x="253" y="390"/>
      <point x="228" y="406"/>
      <point x="196" y="406" type="curve" smooth="yes"/>
      <point x="158" y="406"/>
      <point x="126" y="385"/>
      <point x="92" y="337" type="curve"/>
    </contour>
  </outline>
</glyph>
<glyph name="exclamdown" format="1">
  <advance width="218"/>
  <unicode hex="00A1"/>
  <outline>
    <contour>
      <point x="178" y="640" type="line"/>
      <point x="174" y="640" type="line"/>
      <point x="185" y="700" type="line"/>
      <point x="189" y="700" type="line"/>
    </contour>
    <contour>
      <point x="65" y="0" type="line"/>
      <point x="61" y="0" type="line"/>
      <point x="119" y="329" type="line"/>
      <point x="162" y="570" type="line"/>
      <point x="166" y="570" type="line"/>
      <point x="123" y="329" type="line"/>
    </contour>
  </outline>
</glyph>
<glyph name="cent" format="1">
  <advance width="483"/>
  <unicode hex="00A2"/>
  <outline>
    <contour>
      <point x="239" y="85" type="curve"/>
      <point x="223" y="-11" type="line"/>
      <point x="219" y="-11" type="line"/>
      <point x="235" y="85" type="line"/>
      <point x="138" y="93"/>
      <point x="70" y="160"/>
      <point x="70" y="294" type="curve" smooth="yes"/>
      <point x="70" y="501"/>
      <point x="202" y="630"/>
      <point x="324" y="630" type="curve" smooth="yes"/>
      <point x="327" y="630"/>
      <point x="329" y="630"/>
      <point x="332" y="630" type="curve"/>
      <point x="346" y="711" type="line"/>
      <point x="350" y="711" type="line"/>
      <point x="336" y="630" type="line"/>
      <point x="409" y="626"/>
      <point x="454" y="590"/>
      <point x="476" y="567" type="curve"/>
      <point x="473" y="564" type="line"/>
      <point x="450" y="587"/>
      <point x="404" y="626"/>
      <point x="324" y="626" type="curve" smooth="yes"/>
      <point x="204" y="626"/>
      <point x="74" y="499"/>
      <point x="74" y="294" type="curve" smooth="yes"/>
      <point x="74" y="153"/>
      <point x="150" y="88"/>
      <point x="257" y="88" type="curve" smooth="yes"/>
      <point x="313" y="88"/>
      <point x="363" y="105"/>
      <point x="398" y="131" type="curve"/>
      <point x="401" y="128" type="line"/>
      <point x="363" y="100"/>
      <point x="312" y="84"/>
      <point x="257" y="84" type="curve" smooth="yes"/>
      <point x="251" y="84"/>
      <point x="245" y="84"/>
    </contour>
  </outline>
</glyph>
<glyph name="sterling" format="1">
  <advance width="541"/>
  <unicode hex="00A3"/>
  <outline>
    <contour>
      <point x="185" y="328" type="line"/>
      <point x="182" y="360"/>
      <point x="176" y="391"/>
      <point x="169" y="424" type="curve" smooth="yes"/>
      <point x="162" y="459"/>
      <point x="154" y="494"/>
      <point x="154" y="532" type="curve" smooth="yes"/>
      <point x="154" y="635"/>
      <point x="232" y="713"/>
      <point x="356" y="713" type="curve" smooth="yes"/>
      <point x="428" y="713"/>
      <point x="500" y="688"/>
      <point x="540" y="642" type="curve"/>
      <point x="538" y="640" type="line"/>
      <point x="498" y="684"/>
      <point x="426" y="709"/>
      <point x="356" y="709" type="curve" smooth="yes"/>
      <point x="234" y="709"/>
      <point x="158" y="633"/>
      <point x="158" y="532" type="curve" smooth="yes"/>
      <point x="158" y="494"/>
      <point x="166" y="459"/>
      <point x="173" y="424" type="curve" smooth="yes"/>
      <point x="180" y="391"/>
      <point x="186" y="360"/>
      <point x="189" y="328" type="curve"/>
      <point x="364" y="328" type="line"/>
      <point x="363" y="324" type="line"/>
      <point x="189" y="324" type="line"/>
      <point x="190" y="315"/>
      <point x="190" y="308"/>
      <point x="190" y="299" type="curve" smooth="yes"/>
      <point x="190" y="142"/>
      <point x="70" y="32"/>
      <point x="27" y="4" type="curve"/>
      <point x="444" y="4" type="line"/>
      <point x="444" y="0" type="line"/>
      <point x="22" y="0" type="line"/>
      <point x="23" y="6" type="line"/>
      <point x="65" y="33"/>
      <point x="186" y="142"/>
      <point x="186" y="299" type="curve" smooth="yes"/>
      <point x="186" y="307"/>
      <point x="186" y="316"/>
      <point x="185" y="324" type="curve"/>
      <point x="83" y="324" type="line"/>
      <point x="84" y="328" type="line"/>
    </contour>
  </outline>
</glyph>
<glyph name="yen" format="1">
  <advance width="604"/>
  <unicode hex="00A5"/>
  <outline>
    <contour>
      <point x="284" y="169" type="line"/>
      <point x="307" y="301" type="line"/>
      <point x="143" y="700" type="line"/>
      <point x="147" y="700" type="line"/>
      <point x="310" y="306" type="line"/>
      <point x="613" y="700" type="line"/>
      <point x="617" y="700" type="line"/>
      <point x="311" y="301" type="line"/>
      <point x="288" y="169" type="line"/>
      <point x="425" y="169" type="line"/>
      <point x="424" y="165" type="line"/>
      <point x="287" y="165" type="line"/>
      <point x="258" y="0" type="line"/>
      <point x="254" y="0" type="line"/>
      <point x="283" y="165" type="line"/>
      <point x="148" y="165" type="line"/>
      <point x="149" y="169" type="line"/>
    </contour>
  </outline>
</glyph>
<glyph name="section" format="1">
  <advance width="584"/>
  <unicode hex="00A7"/>
  <outline>
    <contour>
      <point x="302" y="87" type="curve"/>
      <point x="380" y="45"/>
      <point x="399" y="12"/>
      <point x="399" y="-37" type="curve" smooth="yes"/>
      <point x="399" y="-113"/>
      <point x="335" y="-164"/>
      <point x="241" y="-164" type="curve" smooth="yes"/>
      <point x="162" y="-164"/>
      <point x="91" y="-135"/>
      <point x="56" y="-102" type="curve"/>
      <point x="58" y="-99" type="line"/>
      <point x="95" y="-132"/>
      <point x="164" y="-160"/>
      <point x="241" y="-160" type="curve" smooth="yes"/>
      <point x="333" y="-160"/>
      <point x="395" y="-111"/>
      <point x="395" y="-37" type="curve" smooth="yes"/>
      <point x="395" y="21"/>
      <point x="366" y="57"/>
      <point x="236" y="113" type="curve" smooth="yes"/>
      <point x="87" y="177"/>
      <point x="62" y="212"/>
      <point x="62" y="281" type="curve" smooth="yes"/>
      <point x="62" y="376"/>
      <point x="180" y="441"/>
      <point x="281" y="458" type="curve"/>
      <point x="203" y="499"/>
      <point x="183" y="532"/>
      <point x="183" y="582" type="curve" smooth="yes"/>
      <point x="183" y="658"/>
      <point x="247" y="709"/>
      <point x="341" y="709" type="curve" smooth="yes"/>
      <point x="420" y="709"/>
      <point x="491" y="680"/>
      <point x="526" y="647" type="curve"/>
      <point x="524" y="644" type="line"/>
      <point x="487" y="677"/>
      <point x="418" y="705"/>
      <point x="341" y="705" type="curve" smooth="yes"/>
      <point x="249" y="705"/>
      <point x="187" y="656"/>
      <point x="187" y="582" type="curve" smooth="yes"/>
      <point x="187" y="524"/>
      <point x="216" y="487"/>
      <point x="346" y="432" type="curve" smooth="yes"/>
      <point x="495" y="368"/>
      <point x="520" y="333"/>
      <point x="520" y="264" type="curve" smooth="yes"/>
      <point x="520" y="169"/>
      <point x="402" y="104"/>
    </contour>
    <contour>
      <point x="286" y="456" type="curve"/>
      <point x="185" y="439"/>
      <point x="66" y="375"/>
      <point x="66" y="281" type="curve" smooth="yes"/>
      <point x="66" y="215"/>
      <point x="90" y="179"/>
      <point x="237" y="117" type="curve" smooth="yes"/>
      <point x="260" y="107"/>
      <point x="279" y="98"/>
      <point x="296" y="90" type="curve"/>
      <point x="398" y="106"/>
      <point x="516" y="170"/>
      <point x="516" y="264" type="curve" smooth="yes"/>
      <point x="516" y="330"/>
      <point x="492" y="365"/>
      <point x="345" y="428" type="curve" smooth="yes"/>
      <point x="323" y="437"/>
      <point x="305" y="445"/>
    </contour>
  </outline>
</glyph>
<glyph name="dieresis" format="1">
  <advance width="500"/>
  <unicode hex="00A8"/>
  <outline>
    <contour>
      <point x="409" y="595" type="line"/>
      <point x="405" y="595" type="line"/>
      <point x="418" y="665" type="line"/>
      <point x="422" y="665" type="line"/>
    </contour>
    <contour>
      <point x="213" y="595" type="line"/>
      <point x="209" y="595" type="line"/>
      <point x="222" y="665" type="line"/>
      <point x="226" y="665" type="line"/>
    </contour>
  </outline>
</glyph>
<glyph name="copyright" format="1">
  <advance width="836"/>
  <unicode hex="00A9"/>
  <outline>
    <contour>
      <point x="801" y="350" type="curve" smooth="yes"/>
      <point x="801" y="141"/>
      <point x="649" y="-11"/>
      <point x="440" y="-11" type="curve" smooth="yes"/>
      <point x="231" y="-11"/>
      <point x="79" y="141"/>
      <point x="79" y="350" type="curve" smooth="yes"/>
      <point x="79" y="559"/>
      <point x="231" y="711"/>
      <point x="440" y="711" type="curve" smooth="yes"/>
      <point x="649" y="711"/>
      <point x="801" y="559"/>
    </contour>
    <contour>
      <point x="797" y="350" type="curve" smooth="yes"/>
      <point x="797" y="557"/>
      <point x="647" y="707"/>
      <point x="440" y="707" type="curve" smooth="yes"/>
      <point x="233" y="707"/>
      <point x="83" y="557"/>
      <point x="83" y="350" type="curve" smooth="yes"/>
      <point x="83" y="143"/>
      <point x="233" y="-7"/>
      <point x="440" y="-7" type="curve" smooth="yes"/>
      <point x="647" y="-7"/>
      <point x="797" y="143"/>
    </contour>
    <contour>
      <point x="548" y="175" type="line"/>
      <point x="519" y="147"/>
      <point x="480" y="133"/>
      <point x="440" y="133" type="curve" smooth="yes"/>
      <point x="342" y="133"/>
      <point x="271" y="216"/>
      <point x="271" y="351" type="curve" smooth="yes"/>
      <point x="271" y="486"/>
      <point x="342" y="568"/>
      <point x="440" y="568" type="curve" smooth="yes"/>
      <point x="487" y="568"/>
      <point x="518" y="554"/>
      <point x="542" y="533" type="curve"/>
      <point x="539" y="530" type="line"/>
      <point x="516" y="551"/>
      <point x="486" y="564"/>
      <point x="440" y="564" type="curve" smooth="yes"/>
      <point x="344" y="564"/>
      <point x="275" y="482"/>
      <point x="275" y="351" type="curve" smooth="yes"/>
      <point x="275" y="220"/>
      <point x="344" y="137"/>
      <point x="440" y="137" type="curve" smooth="yes"/>
      <point x="479" y="137"/>
      <point x="517" y="151"/>
      <point x="545" y="178" type="curve"/>
    </contour>
  </outline>
</glyph>
<glyph name="ordfeminine" format="1">
  <advance width="455"/>
  <unicode hex="00AA"/>
  <outline>
    <contour>
      <point x="407" y="485" type="curve"/>
      <point x="420" y="562" type="line" smooth="yes"/>
      <point x="438" y="666"/>
      <point x="400" y="708"/>
      <point x="298" y="708" type="curve" smooth="yes"/>
      <point x="258" y="708"/>
      <point x="218" y="697"/>
      <point x="180" y="683" type="curve"/>
      <point x="178" y="687" type="line"/>
      <point x="218" y="701"/>
      <point x="257" y="712"/>
      <point x="298" y="712" type="curve" smooth="yes"/>
      <point x="404" y="712"/>
      <point x="442" y="668"/>
      <point x="424" y="562" type="curve" smooth="yes"/>
      <point x="376" y="282" type="line"/>
      <point x="372" y="282" type="line"/>
      <point x="386" y="364" type="line"/>
      <point x="344" y="317"/>
      <point x="281" y="273"/>
      <point x="214" y="273" type="curve" smooth="yes"/>
      <point x="145" y="273"/>
      <point x="90" y="311"/>
      <point x="90" y="390" type="curve" smooth="yes"/>
      <point x="90" y="475"/>
      <point x="153" y="534"/>
      <point x="256" y="534" type="curve" smooth="yes"/>
      <point x="319" y="534"/>
      <point x="373" y="508"/>
    </contour>
    <contour>
      <point x="406" y="481" type="line"/>
      <point x="372" y="504"/>
      <point x="319" y="530"/>
      <point x="256" y="530" type="curve" smooth="yes"/>
      <point x="155" y="530"/>
      <point x="94" y="473"/>
      <point x="94" y="390" type="curve" smooth="yes"/>
      <point x="94" y="313"/>
      <point x="147" y="277"/>
      <point x="214" y="277" type="curve" smooth="yes"/>
      <point x="282" y="277"/>
      <point x="348" y="324"/>
      <point x="387" y="371" type="curve"/>
    </contour>
  </outline>
</glyph>
<glyph name="guillemotleft" format="1">
  <advance width="530"/>
  <unicode hex="00AB"/>
  <outline>
    <contour>
      <point x="418" y="0" type="line"/>
      <point x="414" y="0" type="line"/>
      <point x="258" y="261" type="line"/>
      <point x="258" y="263" type="line"/>
      <point x="506" y="525" type="line"/>
      <point x="510" y="525" type="line"/>
      <point x="262" y="262" type="line"/>
    </contour>
    <contour>
      <point x="205" y="0" type="line"/>
      <point x="201" y="0" type="line"/>
      <point x="45" y="261" type="line"/>
      <point x="45" y="263" type="line"/>
      <point x="293" y="525" type="line"/>
      <point x="297" y="525" type="line"/>
      <point x="49" y="262" type="line"/>
    </contour>
  </outline>
</glyph>
<glyph name="degree" format="1">
  <advance width="436"/>
  <unicode hex="00B0"/>
  <outline>
    <contour>
      <point x="423" y="558" type="curve" smooth="yes"/>
      <point x="423" y="470"/>
      <point x="360" y="403"/>
      <point x="273" y="403" type="curve" smooth="yes"/>
      <point x="186" y="403"/>
      <point x="123" y="470"/>
      <point x="123" y="558" type="curve" smooth="yes"/>
      <point x="123" y="644"/>
      <point x="186" y="711"/>
      <point x="273" y="711" type="curve" smooth="yes"/>
      <point x="360" y="711"/>
      <point x="423" y="644"/>
    </contour>
    <contour>
      <point x="419" y="558" type="curve" smooth="yes"/>
      <point x="419" y="642"/>
      <point x="358" y="707"/>
      <point x="273" y="707" type="curve" smooth="yes"/>
      <point x="188" y="707"/>
      <point x="127" y="642"/>
      <point x="127" y="558" type="curve" smooth="yes"/>
      <point x="127" y="472"/>
      <point x="188" y="407"/>
      <point x="273" y="407" type="curve" smooth="yes"/>
      <point x="358" y="407"/>
      <point x="419" y="472"/>
    </contour>
  </outline>
</glyph>
<glyph name="acute" format="1">
  <advance width="500"/>
  <unicode hex="00B4"/>
  <outline>
    <contour>
      <point x="397" y="725" type="line"/>
      <point x="271" y="595" type="line"/>
      <point x="266" y="596" type="line"/>
      <point x="392" y="726" type="line"/>
    </contour>
  </outline>
</glyph>
<glyph name="paragraph" format="1">
  <advance width="613"/>
  <unicode hex="00B6"/>
  <outline>
    <contour>
      <point x="583" y="700" type="line"/>
      <point x="427" y="-185" type="line"/>
      <point x="423" y="-185" type="line"/>
      <point x="578" y="696" type="line"/>
      <point x="434" y="696" type="line"/>
      <point x="279" y="-185" type="line"/>
      <point x="275" y="-185" type="line"/>
      <point x="354" y="263" type="line"/>
      <point x="296" y="263" type="line" smooth="yes"/>
      <point x="164" y="263"/>
      <point x="86" y="339"/>
      <point x="86" y="451" type="curve" smooth="yes"/>
      <point x="86" y="620"/>
      <point x="201" y="700"/>
      <point x="344" y="700" type="curve" smooth="yes"/>
    </contour>
    <contour>
      <point x="430" y="696" type="line"/>
      <point x="344" y="696" type="line" smooth="yes"/>
      <point x="203" y="696"/>
      <point x="90" y="618"/>
      <point x="90" y="451" type="curve" smooth="yes"/>
      <point x="90" y="341"/>
      <point x="166" y="267"/>
      <point x="296" y="267" type="curve" smooth="yes"/>
      <point x="355" y="267" type="line"/>
    </contour>
  </outline>
</glyph>
<glyph name="periodcentered" format="1">
  <advance width="174"/>
  <unicode hex="00B7"/>
  <outline>
    <contour>
      <point x="102" y="337" type="line"/>
      <point x="98" y="337" type="line"/>
      <point x="109" y="397" type="line"/>
      <point x="113" y="397" type="line"/>
    </contour>
  </outline>
</glyph>
<glyph name="cedilla" format="1">
  <advance width="500"/>
  <unicode hex="00B8"/>
  <outline>
    <contour>
      <point x="100" y="-117" type="line"/>
      <point x="127" y="-142"/>
      <point x="163" y="-151"/>
      <point x="189" y="-151" type="curve" smooth="yes"/>
      <point x="242" y="-151"/>
      <point x="273" y="-124"/>
      <point x="273" y="-88" type="curve" smooth="yes"/>
      <point x="273" y="-65"/>
      <point x="257" y="-47"/>
      <point x="227" y="-47" type="curve" smooth="yes"/>
      <point x="209" y="-47"/>
      <point x="188" y="-55"/>
      <point x="174" y="-65" type="curve"/>
      <point x="171" y="-64" type="line"/>
      <point x="208" y="-6" type="line"/>
      <point x="212" y="-8" type="line"/>
      <point x="177" y="-60" type="line"/>
      <point x="191" y="-50"/>
      <point x="209" y="-43"/>
      <point x="227" y="-43" type="curve" smooth="yes"/>
      <point x="259" y="-43"/>
      <point x="277" y="-63"/>
      <point x="277" y="-88" type="curve" smooth="yes"/>
      <point x="277" y="-126"/>
      <point x="245" y="-155"/>
      <point x="189" y="-155" type="curve" smooth="yes"/>
      <point x="161" y="-155"/>
      <point x="124" y="-145"/>
      <point x="98" y="-120" type="curve"/>
    </contour>
  </outline>
</glyph>
<glyph name="ordmasculine" format="1">
  <advance width="480"/>
  <unicode hex="00BA"/>
  <outline>
    <contour>
      <point x="98" y="451" type="curve" smooth="yes"/>
      <point x="98" y="594"/>
      <point x="186" y="711"/>
      <point x="307" y="711" type="curve" smooth="yes"/>
      <point x="399" y="711"/>
      <point x="465" y="648"/>
      <point x="465" y="538" type="curve" smooth="yes"/>
      <point x="465" y="394"/>
      <point x="376" y="274"/>
      <point x="255" y="274" type="curve" smooth="yes"/>
      <point x="163" y="274"/>
      <point x="98" y="341"/>
    </contour>
    <contour>
      <point x="461" y="538" type="curve" smooth="yes"/>
      <point x="461" y="646"/>
      <point x="397" y="707"/>
      <point x="307" y="707" type="curve" smooth="yes"/>
      <point x="188" y="707"/>
      <point x="102" y="592"/>
      <point x="102" y="451" type="curve" smooth="yes"/>
      <point x="102" y="343"/>
      <point x="166" y="278"/>
      <point x="255" y="278" type="curve" smooth="yes"/>
      <point x="374" y="278"/>
      <point x="461" y="396"/>
    </contour>
  </outline>
</glyph>
<glyph name="guillemotright" format="1">
  <advance width="530"/>
  <unicode hex="00BB"/>
  <outline>
    <contour>
      <point x="486" y="261" type="line"/>
      <point x="238" y="0" type="line"/>
      <point x="234" y="0" type="line"/>
      <point x="482" y="262" type="line"/>
      <point x="326" y="525" type="line"/>
      <point x="330" y="525" type="line"/>
      <point x="486" y="263" type="line"/>
    </contour>
    <contour>
      <point x="273" y="261" type="line"/>
      <point x="25" y="0" type="line"/>
      <point x="21" y="0" type="line"/>
      <point x="269" y="262" type="line"/>
      <point x="113" y="525" type="line"/>
      <point x="117" y="525" type="line"/>
      <point x="273" y="263" type="line"/>
    </contour>
  </outline>
</glyph>
<glyph name="questiondown" format="1">
  <advance width="552"/>
  <unicode hex="00BF"/>
  <outline>
    <contour>
      <point x="368" y="640" type="line"/>
      <point x="379" y="700" type="line"/>
      <point x="383" y="700" type="line"/>
      <point x="372" y="640" type="line"/>
    </contour>
    <contour>
      <point x="445" y="44" type="line"/>
      <point x="392" y="9"/>
      <point x="329" y="-11"/>
      <point x="247" y="-11" type="curve" smooth="yes"/>
      <point x="146" y="-11"/>
      <point x="68" y="40"/>
      <point x="68" y="129" type="curve" smooth="yes"/>
      <point x="68" y="223"/>
      <point x="138" y="278"/>
      <point x="223" y="336" type="curve" smooth="yes"/>
      <point x="303" y="391"/>
      <point x="329" y="421"/>
      <point x="355" y="563" type="curve"/>
      <point x="359" y="563" type="line"/>
      <point x="333" y="419"/>
      <point x="306" y="387"/>
      <point x="224" y="332" type="curve" smooth="yes"/>
      <point x="141" y="276"/>
      <point x="72" y="221"/>
      <point x="72" y="129" type="curve" smooth="yes"/>
      <point x="72" y="42"/>
      <point x="148" y="-7"/>
      <point x="247" y="-7" type="curve" smooth="yes"/>
      <point x="330" y="-7"/>
      <point x="391" y="13"/>
      <point x="444" y="48" type="curve"/>
    </contour>
  </outline>
</glyph>
<glyph name="Aring" format="1">
  <advance width="642"/>
  <unicode hex="00C5"/>
  <outline>
    <contour>
      <point x="144" y="212" type="line"/>
      <point x="32" y="-1" type="line"/>
      <point x="28" y="0" type="line"/>
      <point x="396" y="702" type="line"/>
      <point x="361" y="707"/>
      <point x="335" y="736"/>
      <point x="335" y="772" type="curve" smooth="yes"/>
      <point x="335" y="812"/>
      <point x="367" y="844"/>
      <point x="407" y="844" type="curve" smooth="yes"/>
      <point x="447" y="844"/>
      <point x="479" y="812"/>
      <point x="479" y="772" type="curve" smooth="yes"/>
      <point x="479" y="732"/>
      <point x="447" y="701"/>
      <point x="407" y="701" type="curve" smooth="yes"/>
      <point x="405" y="701"/>
      <point x="403" y="701"/>
      <point x="402" y="701" type="curve"/>
      <point x="402" y="699" type="line"/>
      <point x="522" y="0" type="line"/>
      <point x="518" y="0" type="line"/>
      <point x="482" y="212" type="line"/>
    </contour>
    <contour>
      <point x="475" y="772" type="curve" smooth="yes"/>
      <point x="475" y="810"/>
      <point x="445" y="840"/>
      <point x="407" y="840" type="curve" smooth="yes"/>
      <point x="369" y="840"/>
      <point x="339" y="810"/>
      <point x="339" y="772" type="curve" smooth="yes"/>
      <point x="339" y="734"/>
      <point x="369" y="705"/>
      <point x="407" y="705" type="curve" smooth="yes"/>
      <point x="445" y="705"/>
      <point x="475" y="734"/>
    </contour>
    <contour>
      <point x="481" y="216" type="line"/>
      <point x="398" y="698" type="line"/>
      <point x="398" y="698"/>
      <point x="146" y="216"/>
      <point x="145" y="216" type="curve"/>
    </contour>
  </outline>
</glyph>
<glyph name="AE" format="1">
  <advance width="916"/>
  <unicode hex="00C6"/>
  <outline>
    <contour>
      <point x="532" y="375" type="line"/>
      <point x="757" y="375" type="line"/>
      <point x="756" y="371" type="line"/>
      <point x="531" y="371" type="line"/>
      <point x="466" y="4" type="line"/>
      <point x="833" y="4" type="line"/>
      <point x="832" y="0" type="line"/>
      <point x="461" y="0" type="line"/>
      <point x="498" y="210" type="line"/>
      <point x="168" y="210" type="line"/>
      <point x="-13" y="-1" type="line"/>
      <point x="-18" y="-1" type="line"/>
      <point x="582" y="700" type="line"/>
      <point x="941" y="700" type="line"/>
      <point x="940" y="696" type="line"/>
      <point x="589" y="696" type="line"/>
    </contour>
    <contour>
      <point x="171" y="214" type="line"/>
      <point x="499" y="214" type="line"/>
      <point x="584" y="696" type="line"/>
    </contour>
  </outline>
</glyph>
<glyph name="Ccedilla" format="1">
  <advance width="604"/>
  <unicode hex="00C7"/>
  <outline>
    <contour>
      <point x="290" y="-8" type="line"/>
      <point x="168" y="10"/>
      <point x="84" y="110"/>
      <point x="84" y="274" type="curve" smooth="yes"/>
      <point x="84" y="493"/>
      <point x="213" y="711"/>
      <point x="420" y="711" type="curve" smooth="yes"/>
      <point x="496" y="711"/>
      <point x="559" y="679"/>
      <point x="592" y="641" type="curve"/>
      <point x="589" y="638" type="line"/>
      <point x="557" y="675"/>
      <point x="494" y="707"/>
      <point x="420" y="707" type="curve" smooth="yes"/>
      <point x="217" y="707"/>
      <point x="88" y="493"/>
      <point x="88" y="274" type="curve" smooth="yes"/>
      <point x="88" y="95"/>
      <point x="189" y="-7"/>
      <point x="330" y="-7" type="curve" smooth="yes"/>
      <point x="387" y="-7"/>
      <point x="444" y="11"/>
      <point x="497" y="49" type="curve"/>
      <point x="499" y="46" type="line"/>
      <point x="450" y="9"/>
      <point x="388" y="-11"/>
      <point x="330" y="-11" type="curve" smooth="yes"/>
      <point x="318" y="-11"/>
      <point x="306" y="-10"/>
      <point x="294" y="-9" type="curve"/>
      <point x="260" y="-60" type="line"/>
      <point x="274" y="-50"/>
      <point x="292" y="-43"/>
      <point x="310" y="-43" type="curve" smooth="yes"/>
      <point x="342" y="-43"/>
      <point x="360" y="-63"/>
      <point x="360" y="-88" type="curve" smooth="yes"/>
      <point x="360" y="-126"/>
      <point x="328" y="-155"/>
      <point x="272" y="-155" type="curve" smooth="yes"/>
      <point x="244" y="-155"/>
      <point x="207" y="-145"/>
      <point x="181" y="-120" type="curve"/>
      <point x="183" y="-117" type="line"/>
      <point x="210" y="-142"/>
      <point x="246" y="-151"/>
      <point x="272" y="-151" type="curve" smooth="yes"/>
      <point x="325" y="-151"/>
      <point x="356" y="-124"/>
      <point x="356" y="-88" type="curve" smooth="yes"/>
      <point x="356" y="-65"/>
      <point x="340" y="-47"/>
      <point x="310" y="-47" type="curve" smooth="yes"/>
      <point x="292" y="-47"/>
      <point x="271" y="-55"/>
      <point x="257" y="-65" type="curve"/>
      <point x="254" y="-64" type="line"/>
    </contour>
  </outline>
</glyph>
<glyph name="Eth" format="1">
  <advance width="660"/>
  <unicode hex="00D0"/>
  <outline>
    <contour>
      <point x="113" y="362" type="line"/>
      <point x="41" y="362" type="line"/>
      <point x="42" y="366" type="line"/>
      <point x="114" y="366" type="line"/>
      <point x="173" y="700" type="line"/>
      <point x="341" y="700" type="line" smooth="yes"/>
      <point x="502" y="700"/>
      <point x="593" y="612"/>
      <point x="593" y="431" type="curve" smooth="yes"/>
      <point x="593" y="185"/>
      <point x="466" y="0"/>
      <point x="222" y="0" type="curve" smooth="yes"/>
      <point x="49" y="0" type="line"/>
    </contour>
    <contour>
      <point x="118" y="366" type="line"/>
      <point x="282" y="366" type="line"/>
      <point x="281" y="362" type="line"/>
      <point x="117" y="362" type="line"/>
      <point x="54" y="4" type="line"/>
      <point x="222" y="4" type="line" smooth="yes"/>
      <point x="464" y="4"/>
      <point x="589" y="187"/>
      <point x="589" y="431" type="curve" smooth="yes"/>
      <point x="589" y="609"/>
      <point x="500" y="696"/>
      <point x="341" y="696" type="curve" smooth="yes"/>
      <point x="177" y="696" type="line"/>
    </contour>
  </outline>
</glyph>
<glyph name="Oslash" format="1">
  <advance width="724"/>
  <unicode hex="00D8"/>
  <outline>
    <contour>
      <point x="169" y="48" type="line"/>
      <point x="116" y="96"/>
      <point x="85" y="171"/>
      <point x="85" y="271" type="curve" smooth="yes"/>
      <point x="85" y="492"/>
      <point x="210" y="711"/>
      <point x="419" y="711" type="curve" smooth="yes"/>
      <point x="484" y="711"/>
      <point x="540" y="691"/>
      <point x="581" y="654" type="curve"/>
      <point x="647" y="750" type="line"/>
      <point x="651" y="750" type="line"/>
      <point x="584" y="651" type="line"/>
      <point x="637" y="603"/>
      <point x="667" y="526"/>
      <point x="667" y="427" type="curve" smooth="yes"/>
      <point x="667" y="206"/>
      <point x="544" y="-11"/>
      <point x="335" y="-11" type="curve" smooth="yes"/>
      <point x="260" y="-11"/>
      <point x="203" y="16"/>
      <point x="172" y="46" type="curve"/>
      <point x="107" y="-50" type="line"/>
      <point x="103" y="-50" type="line"/>
    </contour>
    <contour>
      <point x="172" y="51" type="curve"/>
      <point x="579" y="650" type="line"/>
      <point x="538" y="688"/>
      <point x="484" y="707"/>
      <point x="419" y="707" type="curve" smooth="yes"/>
      <point x="214" y="707"/>
      <point x="89" y="492"/>
      <point x="89" y="271" type="curve" smooth="yes"/>
      <point x="89" y="173"/>
      <point x="120" y="98"/>
    </contour>
    <contour>
      <point x="582" y="648" type="curve"/>
      <point x="174" y="49" type="line"/>
      <point x="216" y="12"/>
      <point x="270" y="-7"/>
      <point x="335" y="-7" type="curve" smooth="yes"/>
      <point x="540" y="-7"/>
      <point x="663" y="206"/>
      <point x="663" y="427" type="curve" smooth="yes"/>
      <point x="663" y="525"/>
      <point x="633" y="600"/>
    </contour>
  </outline>
</glyph>
<glyph name="Thorn" format="1">
  <advance width="558"/>
  <unicode hex="00DE"/>
  <outline>
    <contour>
      <point x="91" y="174" type="line"/>
      <point x="60" y="0" type="line"/>
      <point x="56" y="0" type="line"/>
      <point x="180" y="700" type="line"/>
      <point x="185" y="700" type="line"/>
      <point x="160" y="560" type="line"/>
      <point x="332" y="560" type="line" smooth="yes"/>
      <point x="458" y="560"/>
      <point x="533" y="518"/>
      <point x="533" y="417" type="curve" smooth="yes"/>
      <point x="533" y="280"/>
      <point x="458" y="174"/>
      <point x="250" y="174" type="curve" smooth="yes"/>
    </contour>
    <contour>
      <point x="92" y="178" type="line"/>
      <point x="251" y="178" type="line" smooth="yes"/>
      <point x="454" y="178"/>
      <point x="529" y="282"/>
      <point x="529" y="417" type="curve" smooth="yes"/>
      <point x="529" y="515"/>
      <point x="455" y="556"/>
      <point x="331" y="556" type="curve" smooth="yes"/>
      <point x="159" y="556" type="line"/>
    </contour>
  </outline>
</glyph>
<glyph name="germandbls" format="1">
  <advance width="562"/>
  <unicode hex="00DF"/>
  <outline>
    <contour>
      <point x="268" y="401" type="line"/>
      <point x="268" y="405" type="line"/>
      <point x="282" y="405" type="line" smooth="yes"/>
      <point x="423" y="405"/>
      <point x="498" y="479"/>
      <point x="498" y="581" type="curve" smooth="yes"/>
      <point x="498" y="652"/>
      <point x="446" y="715"/>
      <point x="339" y="715" type="curve" smooth="yes"/>
      <point x="232" y="715"/>
      <point x="162" y="643"/>
      <point x="140" y="520" type="curve" smooth="yes"/>
      <point x="17" y="-177" type="line"/>
      <point x="12" y="-183" type="line"/>
      <point x="136" y="520" type="line" smooth="yes"/>
      <point x="158" y="645"/>
      <point x="230" y="719"/>
      <point x="339" y="719" type="curve" smooth="yes"/>
      <point x="448" y="719"/>
      <point x="502" y="654"/>
      <point x="502" y="581" type="curve" smooth="yes"/>
      <point x="502" y="487"/>
      <point x="439" y="416"/>
      <point x="321" y="403" type="curve"/>
      <point x="437" y="391"/>
      <point x="499" y="327"/>
      <point x="499" y="233" type="curve" smooth="yes"/>
      <point x="499" y="96"/>
      <point x="399" y="0"/>
      <point x="247" y="0" type="curve" smooth="yes"/>
      <point x="231" y="0"/>
      <point x="214" y="1"/>
      <point x="197" y="3" type="curve"/>
      <point x="197" y="7" type="line"/>
      <point x="214" y="5"/>
      <point x="231" y="4"/>
      <point x="247" y="4" type="curve" smooth="yes"/>
      <point x="397" y="4"/>
      <point x="495" y="98"/>
      <point x="495" y="233" type="curve" smooth="yes"/>
      <point x="495" y="335"/>
      <point x="421" y="401"/>
      <point x="281" y="401" type="curve" smooth="yes"/>
    </contour>
  </outline>
</glyph>
<glyph name="ae" format="1">
  <advance width="909"/>
  <unicode hex="00E6"/>
  <outline>
    <contour>
      <point x="450" y="350" type="curve" smooth="yes"/>
      <point x="473" y="483"/>
      <point x="424" y="532"/>
      <point x="296" y="532" type="curve" smooth="yes"/>
      <point x="242" y="532"/>
      <point x="193" y="519"/>
      <point x="146" y="501" type="curve"/>
      <point x="145" y="505" type="line"/>
      <point x="194" y="523"/>
      <point x="241" y="536"/>
      <point x="296" y="536" type="curve" smooth="yes"/>
      <point x="428" y="536"/>
      <point x="476" y="482"/>
      <point x="454" y="350" type="curve" smooth="yes"/>
      <point x="452" y="338" type="line"/>
      <point x="491" y="460"/>
      <point x="580" y="536"/>
      <point x="678" y="536" type="curve" smooth="yes"/>
      <point x="805" y="536"/>
      <point x="846" y="431"/>
      <point x="846" y="320" type="curve" smooth="yes"/>
      <point x="846" y="302"/>
      <point x="845" y="279"/>
      <point x="843" y="262" type="curve"/>
      <point x="439" y="262" type="line"/>
      <point x="436" y="242"/>
      <point x="435" y="221"/>
      <point x="435" y="199" type="curve" smooth="yes"/>
      <point x="435" y="39"/>
      <point x="531" y="-7"/>
      <point x="629" y="-7" type="curve" smooth="yes"/>
      <point x="685" y="-7"/>
      <point x="728" y="6"/>
      <point x="771" y="25" type="curve"/>
      <point x="773" y="21" type="line"/>
      <point x="730" y="2"/>
      <point x="685" y="-11"/>
      <point x="629" y="-11" type="curve" smooth="yes"/>
      <point x="543" y="-11"/>
      <point x="458" y="23"/>
      <point x="436" y="138" type="curve"/>
      <point x="370" y="47"/>
      <point x="278" y="-11"/>
      <point x="192" y="-11" type="curve" smooth="yes"/>
      <point x="106" y="-11"/>
      <point x="36" y="36"/>
      <point x="36" y="135" type="curve" smooth="yes"/>
      <point x="36" y="241"/>
      <point x="116" y="314"/>
      <point x="244" y="314" type="curve" smooth="yes"/>
      <point x="323" y="314"/>
      <point x="389" y="284"/>
      <point x="434" y="251" type="curve"/>
      <point x="436" y="272"/>
      <point x="440" y="296"/>
      <point x="444" y="316" type="curve" smooth="yes"/>
      <point x="448" y="335"/>
      <point x="450" y="350"/>
    </contour>
    <contour>
      <point x="439" y="266" type="curve"/>
      <point x="839" y="266" type="line"/>
      <point x="841" y="283"/>
      <point x="842" y="303"/>
      <point x="842" y="320" type="curve" smooth="yes"/>
      <point x="842" y="429"/>
      <point x="803" y="532"/>
      <point x="678" y="532" type="curve" smooth="yes"/>
      <point x="564" y="532"/>
      <point x="462" y="427"/>
    </contour>
    <contour>
      <point x="433" y="246" type="curve"/>
      <point x="388" y="279"/>
      <point x="324" y="310"/>
      <point x="244" y="310" type="curve" smooth="yes"/>
      <point x="118" y="310"/>
      <point x="40" y="238"/>
      <point x="40" y="135" type="curve" smooth="yes"/>
      <point x="40" y="38"/>
      <point x="108" y="-7"/>
      <point x="192" y="-7" type="curve" smooth="yes"/>
      <point x="276" y="-7"/>
      <point x="366" y="49"/>
      <point x="435" y="143" type="curve"/>
      <point x="433" y="160"/>
      <point x="431" y="178"/>
      <point x="431" y="199" type="curve" smooth="yes"/>
      <point x="431" y="215"/>
      <point x="432" y="231"/>
    </contour>
  </outline>
</glyph>
<glyph name="ccedilla" format="1">
  <advance width="483"/>
  <unicode hex="00E7"/>
  <outline>
    <contour>
      <point x="206" y="-8" type="line"/>
      <point x="115" y="3"/>
      <point x="52" y="70"/>
      <point x="52" y="199" type="curve" smooth="yes"/>
      <point x="52" y="406"/>
      <point x="184" y="535"/>
      <point x="306" y="535" type="curve" smooth="yes"/>
      <point x="386" y="535"/>
      <point x="435" y="496"/>
      <point x="458" y="472" type="curve"/>
      <point x="455" y="469" type="line"/>
      <point x="432" y="492"/>
      <point x="386" y="531"/>
      <point x="306" y="531" type="curve" smooth="yes"/>
      <point x="186" y="531"/>
      <point x="56" y="404"/>
      <point x="56" y="199" type="curve" smooth="yes"/>
      <point x="56" y="58"/>
      <point x="132" y="-7"/>
      <point x="239" y="-7" type="curve" smooth="yes"/>
      <point x="295" y="-7"/>
      <point x="345" y="10"/>
      <point x="380" y="36" type="curve"/>
      <point x="383" y="33" type="line"/>
      <point x="345" y="5"/>
      <point x="294" y="-11"/>
      <point x="239" y="-11" type="curve" smooth="yes"/>
      <point x="229" y="-11"/>
      <point x="220" y="-10"/>
      <point x="211" y="-9" type="curve"/>
      <point x="177" y="-60" type="line"/>
      <point x="191" y="-50"/>
      <point x="209" y="-43"/>
      <point x="227" y="-43" type="curve" smooth="yes"/>
      <point x="259" y="-43"/>
      <point x="277" y="-63"/>
      <point x="277" y="-88" type="curve" smooth="yes"/>
      <point x="277" y="-126"/>
      <point x="245" y="-155"/>
      <point x="189" y="-155" type="curve" smooth="yes"/>
      <point x="161" y="-155"/>
      <point x="124" y="-145"/>
      <point x="98" y="-120" type="curve"/>
      <point x="100" y="-117" type="line"/>
      <point x="127" y="-142"/>
      <point x="163" y="-151"/>
      <point x="189" y="-151" type="curve" smooth="yes"/>
      <point x="242" y="-151"/>
      <point x="273" y="-124"/>
      <point x="273" y="-88" type="curve" smooth="yes"/>
      <point x="273" y="-65"/>
      <point x="257" y="-47"/>
      <point x="227" y="-47" type="curve" smooth="yes"/>
      <point x="209" y="-47"/>
      <point x="188" y="-55"/>
      <point x="174" y="-65" type="curve"/>
      <point x="171" y="-64" type="line"/>
    </contour>
  </outline>
</glyph>
<glyph name="eth" format="1">
  <advance width="572"/>
  <unicode hex="00F0"/>
  <outline>
    <contour>
      <point x="411" y="645" type="curve"/>
      <point x="370" y="607" type="line"/>
      <point x="367" y="610" type="line"/>
      <point x="407" y="648" type="line"/>
      <point x="370" y="676"/>
      <point x="323" y="697"/>
      <point x="267" y="710" type="curve"/>
      <point x="267" y="714" type="line"/>
      <point x="325" y="701"/>
      <point x="373" y="680"/>
      <point x="410" y="651" type="curve"/>
      <point x="454" y="692" type="line"/>
      <point x="457" y="689" type="line"/>
      <point x="414" y="648" type="line"/>
      <point x="491" y="588"/>
      <point x="528" y="496"/>
      <point x="528" y="393" type="curve" smooth="yes"/>
      <point x="528" y="200"/>
      <point x="442" y="-11"/>
      <point x="256" y="-11" type="curve" smooth="yes"/>
      <point x="123" y="-11"/>
      <point x="50" y="72"/>
      <point x="50" y="196" type="curve" smooth="yes"/>
      <point x="50" y="354"/>
      <point x="151" y="483"/>
      <point x="298" y="483" type="curve" smooth="yes"/>
      <point x="426" y="483"/>
      <point x="504" y="410"/>
      <point x="516" y="288" type="curve"/>
      <point x="521" y="322"/>
      <point x="524" y="359"/>
      <point x="524" y="393" type="curve" smooth="yes"/>
      <point x="524" y="495"/>
      <point x="488" y="585"/>
    </contour>
    <contour>
      <point x="513" y="273" type="curve"/>
      <point x="506" y="403"/>
      <point x="429" y="479"/>
      <point x="298" y="479" type="curve" smooth="yes"/>
      <point x="153" y="479"/>
      <point x="54" y="352"/>
      <point x="54" y="196" type="curve" smooth="yes"/>
      <point x="54" y="74"/>
      <point x="125" y="-7"/>
      <point x="256" y="-7" type="curve" smooth="yes"/>
      <point x="402" y="-7"/>
      <point x="485" y="124"/>
    </contour>
  </outline>
</glyph>
<glyph name="oslash" format="1">
  <advance width="564"/>
  <unicode hex="00F8"/>
  <outline>
    <contour>
      <point x="445" y="488" type="line"/>
      <point x="487" y="452"/>
      <point x="511" y="395"/>
      <point x="511" y="319" type="curve" smooth="yes"/>
      <point x="511" y="139"/>
      <point x="399" y="-10"/>
      <point x="248" y="-10" type="curve" smooth="yes"/>
      <point x="198" y="-10"/>
      <point x="155" y="6"/>
      <point x="123" y="34" type="curve"/>
      <point x="63" y="-50" type="line"/>
      <point x="59" y="-50" type="line"/>
      <point x="120" y="36" type="line"/>
      <point x="77" y="75"/>
      <point x="53" y="134"/>
      <point x="53" y="210" type="curve" smooth="yes"/>
      <point x="53" y="389"/>
      <point x="163" y="535"/>
      <point x="314" y="535" type="curve" smooth="yes"/>
      <point x="365" y="535"/>
      <point x="410" y="520"/>
      <point x="443" y="490" type="curve"/>
      <point x="503" y="575" type="line"/>
      <point x="507" y="575" type="line"/>
    </contour>
    <contour>
      <point x="122" y="39" type="curve"/>
      <point x="441" y="488" type="line"/>
      <point x="404" y="517"/>
      <point x="364" y="531"/>
      <point x="314" y="531" type="curve" smooth="yes"/>
      <point x="166" y="531"/>
      <point x="57" y="387"/>
      <point x="57" y="210" type="curve" smooth="yes"/>
      <point x="57" y="135"/>
      <point x="81" y="78"/>
    </contour>
    <contour>
      <point x="443" y="485" type="curve"/>
      <point x="125" y="37" type="line"/>
      <point x="155" y="11"/>
      <point x="199" y="-6"/>
      <point x="248" y="-6" type="curve" smooth="yes"/>
      <point x="396" y="-6"/>
      <point x="507" y="141"/>
      <point x="507" y="319" type="curve" smooth="yes"/>
      <point x="507" y="393"/>
      <point x="483" y="449"/>
    </contour>
  </outline>
</glyph>
<glyph name="dotlessi" format="1">
  <advance width="194"/>
  <unicode hex="0131"/>
  <outline>
    <contour>
      <point x="53" y="0" type="line"/>
      <point x="49" y="0" type="line"/>
      <point x="141" y="525" type="line"/>
      <point x="145" y="525" type="line"/>
    </contour>
  </outline>
</glyph>
<glyph name="Lslash" format="1">
  <advance width="497"/>
  <unicode hex="0141"/>
  <outline>
    <contour>
      <point x="104" y="271" type="line"/>
      <point x="46" y="228" type="line"/>
      <point x="47" y="233" type="line"/>
      <point x="105" y="277" type="line"/>
      <point x="180" y="700" type="line"/>
      <point x="184" y="700" type="line"/>
      <point x="110" y="280" type="line"/>
      <point x="317" y="436" type="line"/>
      <point x="316" y="431" type="line"/>
      <point x="109" y="275" type="line"/>
      <point x="61" y="4" type="line"/>
      <point x="401" y="4" type="line"/>
      <point x="400" y="0" type="line"/>
      <point x="56" y="0" type="line"/>
    </contour>
  </outline>
</glyph>
<glyph name="lslash" format="1">
  <advance width="214"/>
  <unicode hex="0142"/>
  <outline>
    <contour>
      <point x="118" y="310" type="line"/>
      <point x="181" y="355" type="line"/>
      <point x="180" y="350" type="line"/>
      <point x="118" y="306" type="line"/>
      <point x="64" y="0" type="line"/>
      <point x="60" y="0" type="line"/>
      <point x="113" y="302" type="line"/>
      <point x="51" y="258" type="line"/>
      <point x="52" y="263" type="line"/>
      <point x="114" y="307" type="line"/>
      <point x="188" y="727" type="line"/>
      <point x="192" y="729" type="line"/>
    </contour>
  </outline>
</glyph>
<glyph name="OE" format="1">
  <advance width="1051"/>
  <unicode hex="0152"/>
  <outline>
    <contour>
      <point x="721" y="700" type="line"/>
      <point x="1080" y="700" type="line"/>
      <point x="1079" y="696" type="line"/>
      <point x="725" y="696" type="line"/>
      <point x="668" y="375" type="line"/>
      <point x="893" y="375" type="line"/>
      <point x="892" y="371" type="line"/>
      <point x="667" y="371" type="line"/>
      <point x="602" y="4" type="line"/>
      <point x="973" y="4" type="line"/>
      <point x="972" y="0" type="line"/>
      <point x="597" y="0" type="line"/>
      <point x="644" y="264" type="line"/>
      <point x="599" y="112"/>
      <point x="491" y="-11"/>
      <point x="335" y="-11" type="curve" smooth="yes"/>
      <point x="186" y="-11"/>
      <point x="85" y="92"/>
      <point x="85" y="271" type="curve" smooth="yes"/>
      <point x="85" y="492"/>
      <point x="210" y="711"/>
      <point x="419" y="711" type="curve" smooth="yes"/>
      <point x="568" y="711"/>
      <point x="667" y="606"/>
      <point x="667" y="427" type="curve" smooth="yes"/>
      <point x="667" y="417"/>
      <point x="666" y="403"/>
      <point x="666" y="390" type="curve"/>
    </contour>
    <contour>
      <point x="419" y="707" type="curve" smooth="yes"/>
      <point x="214" y="707"/>
      <point x="89" y="492"/>
      <point x="89" y="271" type="curve" smooth="yes"/>
      <point x="89" y="94"/>
      <point x="188" y="-7"/>
      <point x="335" y="-7" type="curve" smooth="yes"/>
      <point x="540" y="-7"/>
      <point x="663" y="206"/>
      <point x="663" y="427" type="curve" smooth="yes"/>
      <point x="663" y="604"/>
      <point x="566" y="707"/>
    </contour>
  </outline>
</glyph>
<glyph name="oe" format="1">
  <advance width="977"/>
  <unicode hex="0153"/>
  <outline>
    <contour>
      <point x="503" y="199" type="curve" smooth="yes"/>
      <point x="503" y="41"/>
      <point x="600" y="-7"/>
      <point x="697" y="-7" type="curve" smooth="yes"/>
      <point x="753" y="-7"/>
      <point x="796" y="6"/>
      <point x="839" y="25" type="curve"/>
      <point x="841" y="21" type="line"/>
      <point x="798" y="2"/>
      <point x="753" y="-11"/>
      <point x="697" y="-11" type="curve" smooth="yes"/>
      <point x="598" y="-11"/>
      <point x="499" y="37"/>
      <point x="499" y="199" type="curve" smooth="yes"/>
      <point x="499" y="206"/>
      <point x="499" y="214"/>
      <point x="499" y="221" type="curve"/>
      <point x="467" y="87"/>
      <point x="370" y="-10"/>
      <point x="248" y="-10" type="curve" smooth="yes"/>
      <point x="133" y="-10"/>
      <point x="53" y="73"/>
      <point x="53" y="210" type="curve" smooth="yes"/>
      <point x="53" y="389"/>
      <point x="163" y="535"/>
      <point x="314" y="535" type="curve" smooth="yes"/>
      <point x="429" y="535"/>
      <point x="511" y="457"/>
      <point x="511" y="319" type="curve" smooth="yes"/>
      <point x="511" y="314"/>
      <point x="511" y="310"/>
      <point x="511" y="305" type="curve"/>
      <point x="544" y="446"/>
      <point x="641" y="536"/>
      <point x="746" y="536" type="curve" smooth="yes"/>
      <point x="872" y="536"/>
      <point x="914" y="430"/>
      <point x="914" y="320" type="curve" smooth="yes"/>
      <point x="914" y="302"/>
      <point x="913" y="281"/>
      <point x="911" y="264" type="curve"/>
      <point x="507" y="264" type="line"/>
      <point x="505" y="247"/>
      <point x="503" y="223"/>
    </contour>
    <contour>
      <point x="508" y="268" type="curve"/>
      <point x="907" y="268" type="line"/>
      <point x="909" y="284"/>
      <point x="910" y="303"/>
      <point x="910" y="320" type="curve" smooth="yes"/>
      <point x="910" y="428"/>
      <point x="870" y="532"/>
      <point x="746" y="532" type="curve" smooth="yes"/>
      <point x="634" y="532"/>
      <point x="531" y="428"/>
    </contour>
    <contour>
      <point x="57" y="210" type="curve" smooth="yes"/>
      <point x="57" y="75"/>
      <point x="136" y="-6"/>
      <point x="248" y="-6" type="curve" smooth="yes"/>
      <point x="396" y="-6"/>
      <point x="507" y="141"/>
      <point x="507" y="319" type="curve" smooth="yes"/>
      <point x="507" y="455"/>
      <point x="426" y="531"/>
      <point x="314" y="531" type="curve" smooth="yes"/>
      <point x="166" y="531"/>
      <point x="57" y="387"/>
    </contour>
  </outline>
</glyph>
<glyph name="florin" format="1">
  <advance width="336"/>
  <unicode hex="0192"/>
  <outline>
    <contour>
      <point x="182" y="521" type="line"/>
      <point x="59" y="-178" type="line"/>
      <point x="54" y="-185" type="line"/>
      <point x="178" y="521" type="line"/>
      <point x="94" y="521" type="line"/>
      <point x="95" y="525" type="line"/>
      <point x="179" y="525" type="line"/>
      <point x="192" y="602" type="line" smooth="yes"/>
      <point x="207" y="693"/>
      <point x="247" y="711"/>
      <point x="298" y="711" type="curve" smooth="yes"/>
      <point x="328" y="711"/>
      <point x="356" y="700"/>
      <point x="368" y="694" type="curve"/>
      <point x="367" y="690" type="line"/>
      <point x="355" y="696"/>
      <point x="329" y="707"/>
      <point x="298" y="707" type="curve" smooth="yes"/>
      <point x="249" y="707"/>
      <point x="211" y="691"/>
      <point x="196" y="602" type="curve" smooth="yes"/>
      <point x="183" y="525" type="line"/>
      <point x="324" y="525" type="line"/>
      <point x="323" y="521" type="line"/>
    </contour>
  </outline>
</glyph>
<glyph name="circumflex" format="1">
  <advance width="500"/>
  <unicode hex="02C6"/>
  <outline>
    <contour>
      <point x="449" y="595" type="line"/>
      <point x="444" y="595" type="line"/>
      <point x="330" y="721" type="line"/>
      <point x="172" y="594" type="line"/>
      <point x="166" y="594" type="line"/>
      <point x="328" y="724" type="line"/>
      <point x="331" y="725" type="line"/>
    </contour>
  </outline>
</glyph>
<glyph name="caron" format="1">
  <advance width="500"/>
  <unicode hex="02C7"/>
  <outline>
    <contour>
      <point x="192" y="725" type="line"/>
      <point x="197" y="725" type="line"/>
      <point x="311" y="599" type="line"/>
      <point x="469" y="726" type="line"/>
      <point x="475" y="726" type="line"/>
      <point x="313" y="596" type="line"/>
      <point x="310" y="595" type="line"/>
    </contour>
  </outline>
</glyph>
<glyph name="breve" format="1">
  <advance width="500"/>
  <unicode hex="02D8"/>
  <outline>
    <contour>
      <point x="471" y="725" type="line"/>
      <point x="447" y="645"/>
      <point x="391" y="593"/>
      <point x="318" y="593" type="curve" smooth="yes"/>
      <point x="234" y="593"/>
      <point x="186" y="638"/>
      <point x="191" y="725" type="curve"/>
      <point x="195" y="725" type="line"/>
      <point x="190" y="640"/>
      <point x="236" y="597"/>
      <point x="318" y="597" type="curve" smooth="yes"/>
      <point x="390" y="597"/>
      <point x="443" y="647"/>
      <point x="467" y="725" type="curve"/>
    </contour>
  </outline>
</glyph>
<glyph name="dotaccent" format="1">
  <advance width="500"/>
  <unicode hex="02D9"/>
  <outline>
    <contour>
      <point x="312" y="603" type="line"/>
      <point x="308" y="603" type="line"/>
      <point x="321" y="673" type="line"/>
      <point x="325" y="673" type="line"/>
    </contour>
  </outline>
</glyph>
<glyph name="ring" format="1">
  <advance width="500"/>
  <unicode hex="02DA"/>
  <outline>
    <contour>
      <point x="395" y="666" type="curve" smooth="yes"/>
      <point x="395" y="626"/>
      <point x="363" y="595"/>
      <point x="323" y="595" type="curve" smooth="yes"/>
      <point x="283" y="595"/>
      <point x="251" y="626"/>
      <point x="251" y="666" type="curve" smooth="yes"/>
      <point x="251" y="706"/>
      <point x="283" y="738"/>
      <point x="323" y="738" type="curve" smooth="yes"/>
      <point x="363" y="738"/>
      <point x="395" y="706"/>
    </contour>
    <contour>
      <point x="391" y="666" type="curve" smooth="yes"/>
      <point x="391" y="704"/>
      <point x="361" y="734"/>
      <point x="323" y="734" type="curve" smooth="yes"/>
      <point x="285" y="734"/>
      <point x="255" y="704"/>
      <point x="255" y="666" type="curve" smooth="yes"/>
      <point x="255" y="628"/>
      <point x="285" y="599"/>
      <point x="323" y="599" type="curve" smooth="yes"/>
      <point x="361" y="599"/>
      <point x="391" y="628"/>
    </contour>
  </outline>
</glyph>
<glyph name="ogonek" format="1">
  <advance width="500"/>
  <unicode hex="02DB"/>
  <outline>
    <contour>
      <point x="281" y="-153" type="line"/>
      <point x="256" y="-171"/>
      <point x="216" y="-193"/>
      <point x="170" y="-193" type="curve" smooth="yes"/>
      <point x="122" y="-193"/>
      <point x="92" y="-169"/>
      <point x="92" y="-126" type="curve" smooth="yes"/>
      <point x="92" y="-78"/>
      <point x="138" y="-35"/>
      <point x="197" y="0" type="curve"/>
      <point x="198" y="-4" type="line"/>
      <point x="141" y="-37"/>
      <point x="96" y="-80"/>
      <point x="96" y="-126" type="curve" smooth="yes"/>
      <point x="96" y="-167"/>
      <point x="124" y="-189"/>
      <point x="170" y="-189" type="curve" smooth="yes"/>
      <point x="216" y="-189"/>
      <point x="255" y="-167"/>
      <point x="280" y="-149" type="curve"/>
    </contour>
  </outline>
</glyph>
<glyph name="tilde" format="1">
  <advance width="500"/>
  <unicode hex="02DC"/>
  <outline>
    <contour>
      <point x="160" y="603" type="line"/>
      <point x="174" y="644"/>
      <point x="203" y="669"/>
      <point x="241" y="669" type="curve" smooth="yes"/>
      <point x="271" y="669"/>
      <point x="293" y="653"/>
      <point x="313" y="637" type="curve" smooth="yes"/>
      <point x="335" y="619"/>
      <point x="357" y="599"/>
      <point x="390" y="599" type="curve" smooth="yes"/>
      <point x="424" y="599"/>
      <point x="450" y="621"/>
      <point x="466" y="662" type="curve"/>
      <point x="470" y="661" type="line"/>
      <point x="454" y="619"/>
      <point x="426" y="595"/>
      <point x="390" y="595" type="curve" smooth="yes"/>
      <point x="356" y="595"/>
      <point x="334" y="615"/>
      <point x="312" y="633" type="curve" smooth="yes"/>
      <point x="292" y="649"/>
      <point x="270" y="665"/>
      <point x="241" y="665" type="curve" smooth="yes"/>
      <point x="205" y="665"/>
      <point x="178" y="642"/>
      <point x="164" y="602" type="curve"/>
    </contour>
  </outline>
</glyph>
<glyph name="hungarumlaut" format="1">
  <advance width="500"/>
  <unicode hex="02DD"/>
  <outline>
    <contour>
      <point x="471" y="725" type="line"/>
      <point x="345" y="595" type="line"/>
      <point x="340" y="595" type="line"/>
      <point x="466" y="725" type="line"/>
    </contour>
    <contour>
      <point x="311" y="725" type="line"/>
      <point x="185" y="595" type="line"/>
      <point x="180" y="595" type="line"/>
      <point x="306" y="725" type="line"/>
    </contour>
  </outline>
</glyph>
<glyph name="endash" format="1">
  <advance width="410"/>
  <unicode hex="2013"/>
  <outline>
    <contour>
      <point x="375" y="361" type="line"/>
      <point x="69" y="361" type="line"/>
      <point x="70" y="365" type="line"/>
      <point x="376" y="365" type="line"/>
    </contour>
  </outline>
</glyph>
<glyph name="emdash" format="1">
  <advance width="560"/>
  <unicode hex="2014"/>
  <outline>
    <contour>
      <point x="525" y="361" type="line"/>
      <point x="69" y="361" type="line"/>
      <point x="70" y="365" type="line"/>
      <point x="526" y="365" type="line"/>
    </contour>
  </outline>
</glyph>
<glyph name="quoteleft" format="1">
  <advance width="174"/>
  <unicode hex="2018"/>
  <unicode hex="02BB"/>
  <outline>
    <contour>
      <point x="178" y="700" type="line"/>
      <point x="131" y="550" type="line"/>
      <point x="127" y="550" type="line"/>
      <point x="174" y="700" type="line"/>
    </contour>
  </outline>
</glyph>
<glyph name="quoteright" format="1">
  <advance width="174"/>
  <unicode hex="2019"/>
  <unicode hex="02BC"/>
  <outline>
    <contour>
      <point x="177" y="700" type="line"/>
      <point x="130" y="550" type="line"/>
      <point x="126" y="550" type="line"/>
      <point x="173" y="700" type="line"/>
    </contour>
  </outline>
</glyph>
<glyph name="quotesinglbase" format="1">
  <advance width="174"/>
  <unicode hex="201A"/>
  <outline>
    <contour>
      <point x="56" y="60" type="line"/>
      <point x="9" y="-90" type="line"/>
      <point x="5" y="-90" type="line"/>
      <point x="52" y="60" type="line"/>
    </contour>
  </outline>
</glyph>
<glyph name="quotedblleft" format="1">
  <advance width="323"/>
  <unicode hex="201C"/>
  <outline>
    <contour>
      <point x="326" y="700" type="line"/>
      <point x="279" y="550" type="line"/>
      <point x="275" y="550" type="line"/>
      <point x="322" y="700" type="line"/>
    </contour>
    <contour>
      <point x="177" y="700" type="line"/>
      <point x="130" y="550" type="line"/>
      <point x="126" y="550" type="line"/>
      <point x="173" y="700" type="line"/>
    </contour>
  </outline>
</glyph>
<glyph name="quotedblright" format="1">
  <advance width="323"/>
  <unicode hex="201D"/>
  <outline>
    <contour>
      <point x="327" y="700" type="line"/>
      <point x="280" y="550" type="line"/>
      <point x="276" y="550" type="line"/>
      <point x="323" y="700" type="line"/>
    </contour>
    <contour>
      <point x="178" y="700" type="line"/>
      <point x="131" y="550" type="line"/>
      <point x="127" y="550" type="line"/>
      <point x="174" y="700" type="line"/>
    </contour>
  </outline>
</glyph>
<glyph name="quotedblbase" format="1">
  <advance width="323"/>
  <unicode hex="201E"/>
  <outline>
    <contour>
      <point x="205" y="60" type="line"/>
      <point x="158" y="-90" type="line"/>
      <point x="154" y="-90" type="line"/>
      <point x="201" y="60" type="line"/>
    </contour>
    <contour>
      <point x="56" y="60" type="line"/>
      <point x="9" y="-90" type="line"/>
      <point x="5" y="-90" type="line"/>
      <point x="52" y="60" type="line"/>
    </contour>
  </outline>
</glyph>
<glyph name="dagger" format="1">
  <advance width="494"/>
  <unicode hex="2020"/>
  <outline>
    <contour>
      <point x="479" y="429" type="line"/>
      <point x="279" y="429" type="line"/>
      <point x="186" y="-100" type="line"/>
      <point x="182" y="-100" type="line"/>
      <point x="275" y="429" type="line"/>
      <point x="75" y="429" type="line"/>
      <point x="76" y="433" type="line"/>
      <point x="276" y="433" type="line"/>
      <point x="323" y="700" type="line"/>
      <point x="327" y="700" type="line"/>
      <point x="280" y="433" type="line"/>
      <point x="480" y="433" type="line"/>
    </contour>
  </outline>
</glyph>
<glyph name="daggerdbl" format="1">
  <advance width="494"/>
  <unicode hex="2021"/>
  <outline>
    <contour>
      <point x="433" y="166" type="line"/>
      <point x="233" y="166" type="line"/>
      <point x="186" y="-100" type="line"/>
      <point x="182" y="-100" type="line"/>
      <point x="229" y="166" type="line"/>
      <point x="29" y="166" type="line"/>
      <point x="29" y="170" type="line"/>
      <point x="229" y="170" type="line"/>
      <point x="275" y="429" type="line"/>
      <point x="75" y="429" type="line"/>
      <point x="76" y="433" type="line"/>
      <point x="276" y="433" type="line"/>
      <point x="323" y="700" type="line"/>
      <point x="327" y="700" type="line"/>
      <point x="280" y="433" type="line"/>
      <point x="480" y="433" type="line"/>
      <point x="479" y="429" type="line"/>
      <point x="279" y="429" type="line"/>
      <point x="233" y="170" type="line"/>
      <point x="433" y="170" type="line"/>
    </contour>
  </outline>
</glyph>
<glyph name="ellipsis" format="1">
  <advance width="522"/>
  <unicode hex="2026"/>
  <outline>
    <contour>
      <point x="392" y="0" type="line"/>
      <point x="388" y="0" type="line"/>
      <point x="399" y="60" type="line"/>
      <point x="403" y="60" type="line"/>
    </contour>
    <contour>
      <point x="218" y="0" type="line"/>
      <point x="214" y="0" type="line"/>
      <point x="225" y="60" type="line"/>
      <point x="229" y="60" type="line"/>
    </contour>
    <contour>
      <point x="44" y="0" type="line"/>
      <point x="40" y="0" type="line"/>
      <point x="51" y="60" type="line"/>
      <point x="55" y="60" type="line"/>
    </contour>
  </outline>
</glyph>
<glyph name="perthousand" format="1">
  <advance width="1195"/>
  <unicode hex="2030"/>
  <outline>
    <contour>
      <point x="102" y="459" type="curve" smooth="yes"/>
      <point x="102" y="593"/>
      <point x="165" y="710"/>
      <point x="275" y="710" type="curve" smooth="yes"/>
      <point x="352" y="710"/>
      <point x="398" y="662"/>
      <point x="398" y="567" type="curve" smooth="yes"/>
      <point x="398" y="431"/>
      <point x="334" y="318"/>
      <point x="226" y="318" type="curve" smooth="yes"/>
      <point x="144" y="318"/>
      <point x="102" y="368"/>
    </contour>
    <contour>
      <point x="715" y="700" type="line"/>
      <point x="156" y="0" type="line"/>
      <point x="152" y="0" type="line"/>
      <point x="711" y="700" type="line"/>
    </contour>
    <contour>
      <point x="842" y="131" type="curve" smooth="yes"/>
      <point x="842" y="265"/>
      <point x="905" y="382"/>
      <point x="1015" y="382" type="curve" smooth="yes"/>
      <point x="1092" y="382"/>
      <point x="1138" y="334"/>
      <point x="1138" y="239" type="curve" smooth="yes"/>
      <point x="1138" y="103"/>
      <point x="1074" y="-10"/>
      <point x="966" y="-10" type="curve" smooth="yes"/>
      <point x="884" y="-10"/>
      <point x="842" y="40"/>
    </contour>
    <contour>
      <point x="469" y="131" type="curve" smooth="yes"/>
      <point x="469" y="265"/>
      <point x="532" y="382"/>
      <point x="642" y="382" type="curve" smooth="yes"/>
      <point x="719" y="382"/>
      <point x="765" y="334"/>
      <point x="765" y="239" type="curve" smooth="yes"/>
      <point x="765" y="103"/>
      <point x="701" y="-10"/>
      <point x="593" y="-10" type="curve" smooth="yes"/>
      <point x="511" y="-10"/>
      <point x="469" y="40"/>
    </contour>
    <contour>
      <point x="394" y="567" type="curve" smooth="yes"/>
      <point x="394" y="660"/>
      <point x="350" y="706"/>
      <point x="275" y="706" type="curve" smooth="yes"/>
      <point x="167" y="706"/>
      <point x="106" y="591"/>
      <point x="106" y="459" type="curve" smooth="yes"/>
      <point x="106" y="370"/>
      <point x="146" y="322"/>
      <point x="226" y="322" type="curve" smooth="yes"/>
      <point x="332" y="322"/>
      <point x="394" y="433"/>
    </contour>
    <contour>
      <point x="1134" y="239" type="curve" smooth="yes"/>
      <point x="1134" y="332"/>
      <point x="1090" y="378"/>
      <point x="1015" y="378" type="curve" smooth="yes"/>
      <point x="907" y="378"/>
      <point x="846" y="263"/>
      <point x="846" y="131" type="curve" smooth="yes"/>
      <point x="846" y="42"/>
      <point x="886" y="-6"/>
      <point x="966" y="-6" type="curve" smooth="yes"/>
      <point x="1072" y="-6"/>
      <point x="1134" y="105"/>
    </contour>
    <contour>
      <point x="761" y="239" type="curve" smooth="yes"/>
      <point x="761" y="332"/>
      <point x="717" y="378"/>
      <point x="642" y="378" type="curve" smooth="yes"/>
      <point x="534" y="378"/>
      <point x="473" y="263"/>
      <point x="473" y="131" type="curve" smooth="yes"/>
      <point x="473" y="42"/>
      <point x="513" y="-6"/>
      <point x="593" y="-6" type="curve" smooth="yes"/>
      <point x="699" y="-6"/>
      <point x="761" y="105"/>
    </contour>
  </outline>
</glyph>
<glyph name="guilsinglleft" format="1">
  <advance width="317"/>
  <unicode hex="2039"/>
  <outline>
    <contour>
      <point x="205" y="0" type="line"/>
      <point x="201" y="0" type="line"/>
      <point x="45" y="261" type="line"/>
      <point x="45" y="263" type="line"/>
      <point x="293" y="525" type="line"/>
      <point x="297" y="525" type="line"/>
      <point x="49" y="262" type="line"/>
    </contour>
  </outline>
</glyph>
<glyph name="guilsinglright" format="1">
  <advance width="317"/>
  <unicode hex="203A"/>
  <outline>
    <contour>
      <point x="273" y="261" type="line"/>
      <point x="25" y="0" type="line"/>
      <point x="21" y="0" type="line"/>
      <point x="269" y="262" type="line"/>
      <point x="113" y="525" type="line"/>
      <point x="117" y="525" type="line"/>
      <point x="273" y="263" type="line"/>
    </contour>
  </outline>
</glyph>
<glyph name="Euro" format="1">
  <advance width="564"/>
  <unicode hex="20AC"/>
  <outline>
    <contour>
      <point x="88" y="291" type="line"/>
      <point x="88" y="285"/>
      <point x="88" y="280"/>
      <point x="88" y="274" type="curve" smooth="yes"/>
      <point x="88" y="94"/>
      <point x="179" y="-7"/>
      <point x="310" y="-7" type="curve" smooth="yes"/>
      <point x="368" y="-7"/>
      <point x="418" y="17"/>
      <point x="458" y="50" type="curve"/>
      <point x="459" y="46" type="line"/>
      <point x="419" y="13"/>
      <point x="368" y="-11"/>
      <point x="310" y="-11" type="curve" smooth="yes"/>
      <point x="176" y="-11"/>
      <point x="84" y="92"/>
      <point x="84" y="274" type="curve" smooth="yes"/>
      <point x="84" y="494"/>
      <point x="211" y="711"/>
      <point x="400" y="711" type="curve" smooth="yes"/>
      <point x="477" y="711"/>
      <point x="522" y="679"/>
      <point x="554" y="640" type="curve"/>
      <point x="550" y="638" type="line"/>
      <point x="520" y="675"/>
      <point x="475" y="707"/>
      <point x="400" y="707" type="curve" smooth="yes"/>
      <point x="254" y="707"/>
      <point x="145" y="575"/>
      <point x="105" y="412" type="curve"/>
      <point x="387" y="412" type="line"/>
      <point x="386" y="408" type="line"/>
      <point x="104" y="408" type="line"/>
      <point x="95" y="371"/>
      <point x="90" y="334"/>
      <point x="88" y="295" type="curve"/>
      <point x="366" y="295" type="line"/>
      <point x="365" y="291" type="line"/>
    </contour>
  </outline>
</glyph>
<glyph name="uni2117" format="1">
  <advance width="836"/>
  <unicode hex="2117"/>
  <outline>
    <contour>
      <point x="801" y="350" type="curve" smooth="yes"/>
      <point x="801" y="141"/>
      <point x="649" y="-11"/>
      <point x="440" y="-11" type="curve" smooth="yes"/>
      <point x="231" y="-11"/>
      <point x="79" y="141"/>
      <point x="79" y="350" type="curve" smooth="yes"/>
      <point x="79" y="559"/>
      <point x="231" y="711"/>
      <point x="440" y="711" type="curve" smooth="yes"/>
      <point x="649" y="711"/>
      <point x="801" y="559"/>
    </contour>
    <contour>
      <point x="797" y="350" type="curve" smooth="yes"/>
      <point x="797" y="557"/>
      <point x="647" y="707"/>
      <point x="440" y="707" type="curve" smooth="yes"/>
      <point x="233" y="707"/>
      <point x="83" y="557"/>
      <point x="83" y="350" type="curve" smooth="yes"/>
      <point x="83" y="143"/>
      <point x="233" y="-7"/>
      <point x="440" y="-7" type="curve" smooth="yes"/>
      <point x="647" y="-7"/>
      <point x="797" y="143"/>
    </contour>
    <contour>
      <point x="588" y="437" type="curve" smooth="yes"/>
      <point x="588" y="357"/>
      <point x="538" y="318"/>
      <point x="444" y="318" type="curve" smooth="yes"/>
      <point x="346" y="318" type="line"/>
      <point x="346" y="131" type="line"/>
      <point x="342" y="131" type="line"/>
      <point x="342" y="551" type="line"/>
      <point x="453" y="551" type="line" smooth="yes"/>
      <point x="536" y="551"/>
      <point x="588" y="522"/>
    </contour>
    <contour>
      <point x="584" y="437" type="curve" smooth="yes"/>
      <point x="584" y="519"/>
      <point x="535" y="547"/>
      <point x="453" y="547" type="curve" smooth="yes"/>
      <point x="346" y="547" type="line"/>
      <point x="346" y="322" type="line"/>
      <point x="444" y="322" type="line" smooth="yes"/>
      <point x="536" y="322"/>
      <point x="584" y="358"/>
    </contour>
  </outline>
</glyph>
<glyph name="trademark" format="1">
  <advance width="820"/>
  <unicode hex="2122"/>
  <outline>
    <contour>
      <point x="383" y="696" type="line"/>
      <point x="245" y="696" type="line"/>
      <point x="172" y="280" type="line"/>
      <point x="168" y="280" type="line"/>
      <point x="241" y="696" type="line"/>
      <point x="103" y="696" type="line"/>
      <point x="104" y="700" type="line"/>
      <point x="384" y="700" type="line"/>
    </contour>
    <contour>
      <point x="753" y="280" type="line"/>
      <point x="749" y="280" type="line"/>
      <point x="821" y="689" type="line"/>
      <point x="577" y="276" type="line"/>
      <point x="574" y="279" type="line"/>
      <point x="473" y="689" type="line"/>
      <point x="401" y="280" type="line"/>
      <point x="397" y="280" type="line"/>
      <point x="471" y="700" type="line"/>
      <point x="474" y="699" type="line"/>
      <point x="577" y="283" type="line"/>
      <point x="824" y="701" type="line"/>
      <point x="827" y="700" type="line"/>
    </contour>
  </outline>
</glyph>
<glyph name="arrowup" format="1">
  <advance width="366"/>
  <unicode hex="2191"/>
  <outline>
    <contour>
      <point x="302" y="587" type="line"/>
      <point x="298" y="585" type="line"/>
      <point x="200" y="706" type="line"/>
      <point x="200" y="0" type="line"/>
      <point x="196" y="0" type="line"/>
      <point x="196" y="706" type="line"/>
      <point x="98" y="585" type="line"/>
      <point x="94" y="587" type="line"/>
      <point x="198" y="715" type="line"/>
    </contour>
  </outline>
</glyph>
<glyph name="arrowright" format="1">
  <advance width="590"/>
  <unicode hex="2192"/>
  <outline>
    <contour>
      <point x="555" y="350" type="line"/>
      <point x="427" y="246" type="line"/>
      <point x="425" y="250" type="line"/>
      <point x="546" y="348" type="line"/>
      <point x="85" y="348" type="line"/>
      <point x="85" y="352" type="line"/>
      <point x="546" y="352" type="line"/>
      <point x="425" y="450" type="line"/>
      <point x="427" y="454" type="line"/>
    </contour>
  </outline>
</glyph>
<glyph name="arrowdown" format="1">
  <advance width="366"/>
  <unicode hex="2193"/>
  <outline>
    <contour>
      <point x="302" y="113" type="line"/>
      <point x="198" y="-15" type="line"/>
      <point x="94" y="113" type="line"/>
      <point x="98" y="115" type="line"/>
      <point x="196" y="-6" type="line"/>
      <point x="196" y="700" type="line"/>
      <point x="200" y="700" type="line"/>
      <point x="200" y="-6" type="line"/>
      <point x="298" y="115" type="line"/>
    </contour>
  </outline>
</glyph>
<glyph name="arrowboth" format="1">
  <advance width="710"/>
  <unicode hex="2194"/>
  <outline>
    <contour>
      <point x="695" y="350" type="line"/>
      <point x="567" y="246" type="line"/>
      <point x="565" y="250" type="line"/>
      <point x="686" y="348" type="line"/>
      <point x="56" y="348" type="line"/>
      <point x="177" y="250" type="line"/>
      <point x="175" y="246" type="line"/>
      <point x="47" y="350" type="line"/>
      <point x="175" y="454" type="line"/>
      <point x="177" y="450" type="line"/>
      <point x="56" y="352" type="line"/>
      <point x="686" y="352" type="line"/>
      <point x="565" y="450" type="line"/>
      <point x="567" y="454" type="line"/>
    </contour>
  </outline>
</glyph>
<glyph name="arrowupdn" format="1">
  <advance width="366"/>
  <unicode hex="2195"/>
  <outline>
    <contour>
      <point x="302" y="113" type="line"/>
      <point x="198" y="-15" type="line"/>
      <point x="94" y="113" type="line"/>
      <point x="98" y="115" type="line"/>
      <point x="196" y="-6" type="line"/>
      <point x="196" y="706" type="line"/>
      <point x="98" y="585" type="line"/>
      <point x="94" y="587" type="line"/>
      <point x="198" y="715" type="line"/>
      <point x="302" y="587" type="line"/>
      <point x="298" y="585" type="line"/>
      <point x="200" y="706" type="line"/>
      <point x="200" y="-6" type="line"/>
      <point x="298" y="115" type="line"/>
    </contour>
  </outline>
</glyph>
<glyph name="radical" format="1">
  <advance width="520"/>
  <unicode hex="221A"/>
  <outline>
    <contour>
      <point x="489" y="700" type="line"/>
      <point x="225" y="0" type="line"/>
      <point x="221" y="0" type="line"/>
      <point x="63" y="340" type="line"/>
      <point x="67" y="340" type="line"/>
      <point x="223" y="5" type="line"/>
      <point x="485" y="700" type="line"/>
    </contour>
  </outline>
</glyph>
<glyph name="apple" format="1">
  <advance width="710"/>
  <unicode hex="F8FF"/>
  <outline>
    <contour>
      <point x="695" y="350" type="line"/>
      <point x="567" y="246" type="line"/>
      <point x="565" y="250" type="line"/>
      <point x="686" y="348" type="line"/>
      <point x="373" y="348" type="line"/>
      <point x="373" y="-6" type="line"/>
      <point x="471" y="115" type="line"/>
      <point x="475" y="113" type="line"/>
      <point x="371" y="-15" type="line"/>
      <point x="267" y="113" type="line"/>
      <point x="271" y="115" type="line"/>
      <point x="369" y="-6" type="line"/>
      <point x="369" y="348" type="line"/>
      <point x="56" y="348" type="line"/>
      <point x="177" y="250" type="line"/>
      <point x="175" y="246" type="line"/>
      <point x="47" y="350" type="line"/>
      <point x="175" y="454" type="line"/>
      <point x="177" y="450" type="line"/>
      <point x="56" y="352" type="line"/>
      <point x="369" y="352" type="line"/>
      <point x="369" y="706" type="line"/>
      <point x="271" y="585" type="line"/>
      <point x="267" y="587" type="line"/>
      <point x="371" y="715" type="line"/>
      <point x="475" y="587" type="line"/>
      <point x="471" y="585" type="line"/>
      <point x="373" y="706" type="line"/>
      <point x="373" y="352" type="line"/>
      <point x="686" y="352" type="line"/>
      <point x="565" y="450" type="line"/>
      <point x="567" y="454" type="line"/>
    </contour>
  </outline>
</glyph>
<glyph name="fl" format="1">
  <advance width="514"/>
  <unicode hex="FB02"/>
  <outline>
    <contour>
      <point x="373" y="0" type="line"/>
      <point x="369" y="0" type="line"/>
      <point x="497" y="727" type="line"/>
      <point x="501" y="729" type="line"/>
    </contour>
    <contour>
      <point x="182" y="521" type="line"/>
      <point x="90" y="0" type="line"/>
      <point x="86" y="0" type="line"/>
      <point x="178" y="521" type="line"/>
      <point x="94" y="521" type="line"/>
      <point x="95" y="525" type="line"/>
      <point x="179" y="525" type="line"/>
      <point x="195" y="615" type="line" smooth="yes"/>
      <point x="211" y="706"/>
      <point x="250" y="724"/>
      <point x="301" y="724" type="curve" smooth="yes"/>
      <point x="331" y="724"/>
      <point x="359" y="713"/>
      <point x="371" y="707" type="curve"/>
      <point x="370" y="703" type="line"/>
      <point x="358" y="709"/>
      <point x="332" y="720"/>
      <point x="301" y="720" type="curve" smooth="yes"/>
      <point x="252" y="720"/>
      <point x="215" y="704"/>
      <point x="199" y="615" type="curve" smooth="yes"/>
      <point x="183" y="525" type="line"/>
      <point x="324" y="525" type="line"/>
      <point x="323" y="521" type="line"/>
    </contour>
  </outline>
</glyph>
<glyph name="a.salt" format="1">
  <advance width="542"/>
  <outline>
    <contour>
      <point x="419" y="104" type="line"/>
      <point x="375" y="50"/>
      <point x="295" y="-11"/>
      <point x="208" y="-11" type="curve" smooth="yes"/>
      <point x="116" y="-11"/>
      <point x="51" y="48"/>
      <point x="51" y="180" type="curve" smooth="yes"/>
      <point x="51" y="364"/>
      <point x="144" y="536"/>
      <point x="288" y="536" type="curve" smooth="yes"/>
      <point x="381" y="536"/>
      <point x="446" y="470"/>
      <point x="475" y="420" type="curve"/>
      <point x="493" y="523" type="line"/>
      <point x="497" y="523" type="line"/>
      <point x="405" y="0" type="line"/>
      <point x="401" y="0" type="line"/>
    </contour>
    <contour>
      <point x="474" y="414" type="line"/>
      <point x="442" y="469"/>
      <point x="380" y="532"/>
      <point x="288" y="532" type="curve" smooth="yes"/>
      <point x="147" y="532"/>
      <point x="55" y="364"/>
      <point x="55" y="180" type="curve" smooth="yes"/>
      <point x="55" y="50"/>
      <point x="118" y="-7"/>
      <point x="208" y="-7" type="curve" smooth="yes"/>
      <point x="294" y="-7"/>
      <point x="376" y="54"/>
      <point x="421" y="113" type="curve"/>
    </contour>
  </outline>
</glyph>
<glyph name="bullet" format="1">
  <advance width="254"/>
  <outline>
    <contour>
      <point x="183" y="366" type="curve" smooth="yes"/>
      <point x="183" y="345"/>
      <point x="167" y="329"/>
      <point x="146" y="329" type="curve" smooth="yes"/>
      <point x="125" y="329"/>
      <point x="109" y="345"/>
      <point x="109" y="366" type="curve" smooth="yes"/>
      <point x="109" y="387"/>
      <point x="125" y="404"/>
      <point x="146" y="404" type="curve" smooth="yes"/>
      <point x="167" y="404"/>
      <point x="183" y="387"/>
    </contour>
  </outline>
</glyph>
<glyph name="macron" format="1">
  <advance width="500"/>
  <outline>
    <contour>
      <point x="452" y="640" type="line"/>
      <point x="180" y="640" type="line"/>
      <point x="181" y="644" type="line"/>
      <point x="453" y="644" type="line"/>
    </contour>
  </outline>
</glyph>
<glyph name="registered" format="1">
  <advance width="836"/>
  <outline>
    <contour>
      <point x="801" y="350" type="curve" smooth="yes"/>
      <point x="801" y="141"/>
      <point x="649" y="-11"/>
      <point x="440" y="-11" type="curve" smooth="yes"/>
      <point x="231" y="-11"/>
      <point x="79" y="141"/>
      <point x="79" y="350" type="curve" smooth="yes"/>
      <point x="79" y="559"/>
      <point x="231" y="711"/>
      <point x="440" y="711" type="curve" smooth="yes"/>
      <point x="649" y="711"/>
      <point x="801" y="559"/>
    </contour>
    <contour>
      <point x="797" y="350" type="curve" smooth="yes"/>
      <point x="797" y="557"/>
      <point x="647" y="707"/>
      <point x="440" y="707" type="curve" smooth="yes"/>
      <point x="233" y="707"/>
      <point x="83" y="557"/>
      <point x="83" y="350" type="curve" smooth="yes"/>
      <point x="83" y="143"/>
      <point x="233" y="-7"/>
      <point x="440" y="-7" type="curve" smooth="yes"/>
      <point x="647" y="-7"/>
      <point x="797" y="143"/>
    </contour>
    <contour>
      <point x="576" y="457" type="curve" smooth="yes"/>
      <point x="576" y="388"/>
      <point x="538" y="353"/>
      <point x="470" y="344" type="curve"/>
      <point x="571" y="145" type="line"/>
      <point x="567" y="145" type="line"/>
      <point x="466" y="343" type="line"/>
      <point x="455" y="342"/>
      <point x="441" y="341"/>
      <point x="428" y="341" type="curve" smooth="yes"/>
      <point x="334" y="341" type="line"/>
      <point x="334" y="145" type="line"/>
      <point x="330" y="145" type="line"/>
      <point x="330" y="565" type="line"/>
      <point x="436" y="565" type="line" smooth="yes"/>
      <point x="520" y="565"/>
      <point x="576" y="541"/>
    </contour>
    <contour>
      <point x="572" y="457" type="curve" smooth="yes"/>
      <point x="572" y="539"/>
      <point x="518" y="561"/>
      <point x="436" y="561" type="curve" smooth="yes"/>
      <point x="334" y="561" type="line"/>
      <point x="334" y="345" type="line"/>
      <point x="428" y="345" type="line" smooth="yes"/>
      <point x="520" y="345"/>
      <point x="572" y="377"/>
    </contour>
  </outline>
</glyph>
